<mxfile host="app.diagrams.net" agent="Mozilla/5.0 (Windows NT 10.0; Win64; x64) AppleWebKit/537.36 (KHTML, like Gecko) Chrome/132.0.0.0 Safari/537.36 Edg/132.0.0.0" version="24.7.17" pages="2">
  <diagram name="PWTC" id="C4O2UrPE6b0XbYrt_uVH">
    <mxGraphModel dx="2166" dy="785" grid="1" gridSize="10" guides="1" tooltips="1" connect="1" arrows="1" fold="1" page="1" pageScale="1" pageWidth="827" pageHeight="1169" math="0" shadow="0">
      <root>
        <mxCell id="gxo681l_O-IEjd7Bf2fG-0" />
        <mxCell id="gxo681l_O-IEjd7Bf2fG-1" parent="gxo681l_O-IEjd7Bf2fG-0" />
        <mxCell id="gxo681l_O-IEjd7Bf2fG-2" value="" style="rounded=0;whiteSpace=wrap;html=1;fillColor=none;" parent="gxo681l_O-IEjd7Bf2fG-1" vertex="1">
          <mxGeometry x="-30" y="20" width="890" height="651" as="geometry" />
        </mxCell>
        <mxCell id="gxo681l_O-IEjd7Bf2fG-3" value="" style="rounded=0;whiteSpace=wrap;html=1;fillColor=none;" parent="gxo681l_O-IEjd7Bf2fG-1" vertex="1">
          <mxGeometry x="621" y="36" width="199" height="437.97" as="geometry" />
        </mxCell>
        <mxCell id="gxo681l_O-IEjd7Bf2fG-4" value="" style="rounded=0;whiteSpace=wrap;html=1;" parent="gxo681l_O-IEjd7Bf2fG-1" vertex="1">
          <mxGeometry x="182.82" y="36" width="410" height="437.97" as="geometry" />
        </mxCell>
        <mxCell id="gxo681l_O-IEjd7Bf2fG-5" value="" style="rounded=0;whiteSpace=wrap;html=1;fillColor=#dae8fc;strokeColor=#6c8ebf;" parent="gxo681l_O-IEjd7Bf2fG-1" vertex="1">
          <mxGeometry x="310" y="246" width="500" height="204" as="geometry" />
        </mxCell>
        <mxCell id="gxo681l_O-IEjd7Bf2fG-6" value="" style="rounded=0;whiteSpace=wrap;html=1;" parent="gxo681l_O-IEjd7Bf2fG-1" vertex="1">
          <mxGeometry x="5.59" y="36" width="146" height="437.97" as="geometry" />
        </mxCell>
        <mxCell id="gxo681l_O-IEjd7Bf2fG-7" value="7core" style="image;sketch=0;aspect=fixed;html=1;points=[];align=center;fontSize=12;image=img/lib/mscae/Azure_Database_for_PostgreSQL_servers.svg;" parent="gxo681l_O-IEjd7Bf2fG-1" vertex="1">
          <mxGeometry x="56.260000000000005" y="107" width="46.4" height="61.05" as="geometry" />
        </mxCell>
        <mxCell id="gxo681l_O-IEjd7Bf2fG-8" value="TSM, Datastore" style="image;aspect=fixed;html=1;points=[];align=center;fontSize=12;image=img/lib/azure2/analytics/Event_Hubs.svg;" parent="gxo681l_O-IEjd7Bf2fG-1" vertex="1">
          <mxGeometry x="56.260000000000005" y="398" width="44.66" height="40" as="geometry" />
        </mxCell>
        <mxCell id="gxo681l_O-IEjd7Bf2fG-9" value="Gold" style="shape=image;verticalLabelPosition=bottom;verticalAlign=top;imageAspect=0;aspect=fixed;image=data:image/svg+xml,PHN2ZyB4bWxucz0iaHR0cDovL3d3dy53My5vcmcvMjAwMC9zdmciIGZpbGw9Im5vbmUiIHZpZXdCb3g9IjAgMCAzMiAzMyIgaGVpZ2h0PSIzMyIgd2lkdGg9IjMyIj4mI3hhOzxwYXRoIGZpbGw9ImJsYWNrIiBkPSJNMTIuNjI2IDQuMzkwMDJDMTMuMzk3IDMuNjYxNzQgMTQuNjAzIDMuNjYxNzQgMTUuMzc0IDQuMzkwMDJMMjUuMDYxIDEzLjU0MDNDMjUuNjYwNCAxNC4xMDY0IDI2IDE0Ljg5NDEgMjYgMTUuNzE4MlYxOC42MDYyQzI1Ljc5OSAxOC40MjY0IDI1LjU3NCAxOC4yNzQgMjUuMzMwNyAxOC4xNTM4QzI0LjkxNyAxNy45NDkyIDI0LjQ2MTUgMTcuODQzMiAyNCAxNy44NDM4VjE1LjcxODJDMjQgMTUuNDQzNSAyMy44ODY4IDE1LjE4MSAyMy42ODcgMTQuOTkyMkwxNCA1Ljg0MTk4TDQuMzEyOTkgMTQuOTkyMkM0LjExMzIgMTUuMTgxIDQgMTUuNDQzNSA0IDE1LjcxODJWMjYuODQ2NkM0IDI3LjM5ODMgNC40NDc3MiAyNy44NDU2IDUgMjcuODQ1Nkg4Ljc2MjNDOC4yNzI2NyAyOC4zOTM5IDggMjkuMTA0OCA4IDI5Ljg0MzhMNSAyOS44NDM4QzMuMzQzMTQgMjkuODQzOCAyIDI4LjUwMTkgMiAyNi44NDY2VjE1LjcxODJDMiAxNC44OTQxIDIuMzM5NjEgMTQuMTA2NCAyLjkzODk2IDEzLjU0MDNMMTIuNjI2IDQuMzkwMDJaIi8+JiN4YTs8cGF0aCBmaWxsPSJibGFjayIgZD0iTTI5IDIyLjg0MzdDMjguMzk3OSAyMi44NzczIDI3Ljc5NTIgMjIuNzg3NiAyNy4yMjg5IDIyLjU4QzI2LjY2MjcgMjIuMzcyNSAyNi4xNDQ4IDIyLjA1MTUgMjUuNzA3IDIxLjYzNjdDMjUuNDY1OCAyMS4zOTY0IDI1LjI1OTEgMjEuMTIzOCAyNS4wOTMgMjAuODI2N0MyNS4wNTI2IDIwLjc1MDYgMjUuMDE2MyAyMC42NzI1IDI0Ljk4NCAyMC41OTI3QzI0Ljk0OTMgMjAuNTA1OSAyNC45MDkyIDIwLjQyMTQgMjQuODY0IDIwLjMzOTdDMjQuODQzNyAyMC4zMDUgMjQuODIxNCAyMC4yNzE2IDI0Ljc5NyAyMC4yMzk3QzI0LjY3MTkgMjAuMDc1MyAyNC40OTkgMTkuOTUzNyAyNC4zMDIxIDE5Ljg5MTZDMjQuMTA1MSAxOS44Mjk1IDIzLjg5MzcgMTkuODI5OCAyMy42OTcgMTkuODkyN0gyMy42ODdDMjMuNDU2NiAxOS45NzA5IDIzLjI2MTggMjAuMTI5MiAyMy4xMzggMjAuMzM4N0MyMy4wODYxIDIwLjQzNTMgMjMuMDQxMyAyMC41MzU1IDIzLjAwNCAyMC42Mzg3TDIyLjk5MzUgMjAuNjY0OEMyMi45NjYxIDIwLjczMzIgMjIuOTM4NiAyMC44MDE5IDIyLjkwNCAyMC44NjY3QzIyLjc1NDEgMjEuMTY2IDIyLjU3MDkgMjEuNDQ3NCAyMi4zNTggMjEuNzA1N0MyMi4wNzY1IDIyLjA2MTEgMjEuNzE4MiAyMi4zNDgyIDIxLjMxMDEgMjIuNTQ1NUMyMC45MDE5IDIyLjc0MjkgMjAuNDU0NCAyMi44NDU0IDIwLjAwMSAyMi44NDU0QzE5LjU0NzYgMjIuODQ1NCAxOS4xMDAxIDIyLjc0MjkgMTguNjkxOSAyMi41NDU1QzE4LjI4MzggMjIuMzQ4MiAxNy45MjU1IDIyLjA2MTEgMTcuNjQ0IDIxLjcwNTdDMTcuNDMxMSAyMS40NDc0IDE3LjI0NzkgMjEuMTY2IDE3LjA5OCAyMC44NjY3QzE3LjA3MTEgMjAuODEzNiAxNy4wNDc5IDIwLjc1NzkgMTcuMDI0NiAyMC43MDE5QzE3LjAxNTggMjAuNjgwOCAxNy4wMDcgMjAuNjU5NyAxNi45OTggMjAuNjM4N0MxNi45NjA3IDIwLjUzNTUgMTYuOTE1OSAyMC40MzUzIDE2Ljg2NCAyMC4zMzg3QzE2Ljc0MDIgMjAuMTI5MiAxNi41NDU0IDE5Ljk3MDkgMTYuMzE1IDE5Ljg5MjdIMTYuMzA1QzE2LjEwODMgMTkuODI5OCAxNS44OTY5IDE5LjgyOTUgMTUuNjk5OSAxOS44OTE2QzE1LjUwMyAxOS45NTM3IDE1LjMzMDEgMjAuMDc1MyAxNS4yMDUgMjAuMjM5N0MxNS4xODA2IDIwLjI3MTYgMTUuMTU4MyAyMC4zMDUgMTUuMTM4IDIwLjMzOTdDMTUuMDkyOCAyMC40MjE0IDE1LjA1MjcgMjAuNTA1OSAxNS4wMTggMjAuNTkyN0MxNC45ODU3IDIwLjY3MjUgMTQuOTQ5NCAyMC43NTA2IDE0LjkwOSAyMC44MjY3QzE0Ljc0MjkgMjEuMTIzOCAxNC41MzYyIDIxLjM5NjQgMTQuMjk1IDIxLjYzNjdDMTMuODU3IDIyLjA1MTcgMTMuMzM4NyAyMi4zNzI5IDEyLjc3MjEgMjIuNTgwNEMxMi4yMDU1IDIyLjc4OCAxMS42MDI1IDIyLjg3NzYgMTEgMjIuODQzN0MxMC43MzQ4IDIyLjg0MzcgMTAuNDgwNCAyMi45NDkgMTAuMjkyOSAyMy4xMzY2QzEwLjEwNTQgMjMuMzI0MSAxMCAyMy41Nzg1IDEwIDIzLjg0MzdDMTAgMjQuMTA4OSAxMC4xMDU0IDI0LjM2MzIgMTAuMjkyOSAyNC41NTA4QzEwLjQ4MDQgMjQuNzM4MyAxMC43MzQ4IDI0Ljg0MzcgMTEgMjQuODQzN0MxMS44NjUgMjQuODc3OSAxMi43Mjc5IDI0LjczNjcgMTMuNTM2OSAyNC40Mjg2QzE0LjM0NTggMjQuMTIwNCAxNS4wODQgMjMuNjUxNyAxNS43MDcgMjMuMDUwN0MxNS43OTQgMjIuOTYzNyAxNS44NzYgMjIuODc2NyAxNS45NTIgMjIuNzg5N0MxNi4wMDEgMjIuODU0NyAxNi4wNTIgMjIuOTE4NyAxNi4xMDcgMjIuOTgzN0MxNi41NzU2IDIzLjU2NTEgMTcuMTY4NiAyNC4wMzQyIDE3Ljg0MjIgMjQuMzU2NUMxOC41MTU5IDI0LjY3ODggMTkuMjUzMiAyNC44NDYxIDIwIDI0Ljg0NjFDMjAuNzQ2OCAyNC44NDYxIDIxLjQ4NDEgMjQuNjc4OCAyMi4xNTc4IDI0LjM1NjVDMjIuODMxNCAyNC4wMzQyIDIzLjQyNDQgMjMuNTY1MSAyMy44OTMgMjIuOTgzN0MyMy45NDcgMjIuOTE4NyAyMy45OTkgMjIuODU0NyAyNC4wNDggMjIuNzg5N0MyNC4xMjQgMjIuODc2NyAyNC4yMDYgMjIuOTYzNyAyNC4yOTMgMjMuMDUwN0MyNC45MTYgMjMuNjUxNyAyNS42NTQyIDI0LjEyMDQgMjYuNDYzMSAyNC40Mjg2QzI3LjI3MjEgMjQuNzM2NyAyOC4xMzUgMjQuODc3OSAyOSAyNC44NDM3QzI5LjI2NTIgMjQuODQzNyAyOS41MTk2IDI0LjczODMgMjkuNzA3MSAyNC41NTA4QzI5Ljg5NDYgMjQuMzYzMiAzMCAyNC4xMDg5IDMwIDIzLjg0MzdDMzAgMjMuNTc4NSAyOS44OTQ2IDIzLjMyNDEgMjkuNzA3MSAyMy4xMzY2QzI5LjUxOTYgMjIuOTQ5IDI5LjI2NTIgMjIuODQzNyAyOSAyMi44NDM3WiIvPiYjeGE7PHBhdGggZmlsbD0iYmxhY2siIGQ9Ik0yOSAyOC44NDM3QzI4LjM5NzkgMjguODc3MyAyNy43OTUyIDI4Ljc4NzYgMjcuMjI4OSAyOC41OEMyNi42NjI3IDI4LjM3MjUgMjYuMTQ0OCAyOC4wNTE1IDI1LjcwNyAyNy42MzY3QzI1LjQ2NTggMjcuMzk2NCAyNS4yNTkxIDI3LjEyMzggMjUuMDkzIDI2LjgyNjdDMjUuMDUyNiAyNi43NTA2IDI1LjAxNjMgMjYuNjcyNSAyNC45ODQgMjYuNTkyN0MyNC45NDkzIDI2LjUwNTkgMjQuOTA5MiAyNi40MjE0IDI0Ljg2NCAyNi4zMzk3QzI0Ljg0MzcgMjYuMzA1IDI0LjgyMTQgMjYuMjcxNiAyNC43OTcgMjYuMjM5N0MyNC42NzE5IDI2LjA3NTMgMjQuNDk5IDI1Ljk1MzcgMjQuMzAyMSAyNS44OTE2QzI0LjEwNTEgMjUuODI5NSAyMy44OTM3IDI1LjgyOTggMjMuNjk3IDI1Ljg5MjdIMjMuNjg3QzIzLjQ1NjYgMjUuOTcwOSAyMy4yNjE4IDI2LjEyOTIgMjMuMTM4IDI2LjMzODdDMjMuMDg2MSAyNi40MzUzIDIzLjA0MTMgMjYuNTM1NSAyMy4wMDQgMjYuNjM4N0wyMi45OTM1IDI2LjY2NDhDMjIuOTY2MSAyNi43MzMyIDIyLjkzODYgMjYuODAxOSAyMi45MDQgMjYuODY2N0MyMi43NTQxIDI3LjE2NiAyMi41NzA5IDI3LjQ0NzQgMjIuMzU4IDI3LjcwNTdDMjIuMDc2NSAyOC4wNjExIDIxLjcxODIgMjguMzQ4MiAyMS4zMTAxIDI4LjU0NTVDMjAuOTAxOSAyOC43NDI5IDIwLjQ1NDQgMjguODQ1NCAyMC4wMDEgMjguODQ1NEMxOS41NDc2IDI4Ljg0NTQgMTkuMTAwMSAyOC43NDI5IDE4LjY5MTkgMjguNTQ1NUMxOC4yODM4IDI4LjM0ODIgMTcuOTI1NSAyOC4wNjExIDE3LjY0NCAyNy43MDU3QzE3LjQzMTEgMjcuNDQ3NCAxNy4yNDc5IDI3LjE2NiAxNy4wOTggMjYuODY2N0MxNy4wNzExIDI2LjgxMzYgMTcuMDQ3OSAyNi43NTc5IDE3LjAyNDYgMjYuNzAxOUMxNy4wMTU4IDI2LjY4MDggMTcuMDA3IDI2LjY1OTcgMTYuOTk4IDI2LjYzODdDMTYuOTYwNyAyNi41MzU1IDE2LjkxNTkgMjYuNDM1MyAxNi44NjQgMjYuMzM4N0MxNi43NDAyIDI2LjEyOTIgMTYuNTQ1NCAyNS45NzA5IDE2LjMxNSAyNS44OTI3SDE2LjMwNUMxNi4xMDgzIDI1LjgyOTggMTUuODk2OSAyNS44Mjk1IDE1LjY5OTkgMjUuODkxNkMxNS41MDMgMjUuOTUzNyAxNS4zMzAxIDI2LjA3NTMgMTUuMjA1IDI2LjIzOTdDMTUuMTgwNiAyNi4yNzE2IDE1LjE1ODMgMjYuMzA1IDE1LjEzOCAyNi4zMzk3QzE1LjA5MjggMjYuNDIxNCAxNS4wNTI3IDI2LjUwNTkgMTUuMDE4IDI2LjU5MjdDMTQuOTg1NyAyNi42NzI1IDE0Ljk0OTQgMjYuNzUwNiAxNC45MDkgMjYuODI2N0MxNC43NDI5IDI3LjEyMzggMTQuNTM2MiAyNy4zOTY0IDE0LjI5NSAyNy42MzY3QzEzLjg1NyAyOC4wNTE3IDEzLjMzODcgMjguMzcyOSAxMi43NzIxIDI4LjU4MDRDMTIuMjA1NSAyOC43ODggMTEuNjAyNSAyOC44Nzc2IDExIDI4Ljg0MzdDMTAuNzM0OCAyOC44NDM3IDEwLjQ4MDQgMjguOTQ5IDEwLjI5MjkgMjkuMTM2NkMxMC4xMDU0IDI5LjMyNDEgMTAgMjkuNTc4NSAxMCAyOS44NDM3QzEwIDMwLjEwODkgMTAuMTA1NCAzMC4zNjMyIDEwLjI5MjkgMzAuNTUwOEMxMC40ODA0IDMwLjczODMgMTAuNzM0OCAzMC44NDM3IDExIDMwLjg0MzdDMTEuODY1IDMwLjg3NzkgMTIuNzI3OSAzMC43MzY3IDEzLjUzNjkgMzAuNDI4NkMxNC4zNDU4IDMwLjEyMDQgMTUuMDg0IDI5LjY1MTcgMTUuNzA3IDI5LjA1MDdDMTUuNzk0IDI4Ljk2MzcgMTUuODc2IDI4Ljg3NjcgMTUuOTUyIDI4Ljc4OTdDMTYuMDAxIDI4Ljg1NDcgMTYuMDUyIDI4LjkxODcgMTYuMTA3IDI4Ljk4MzdDMTYuNTc1NiAyOS41NjUxIDE3LjE2ODYgMzAuMDM0MiAxNy44NDIyIDMwLjM1NjVDMTguNTE1OSAzMC42Nzg4IDE5LjI1MzIgMzAuODQ2MSAyMCAzMC44NDYxQzIwLjc0NjggMzAuODQ2MSAyMS40ODQxIDMwLjY3ODggMjIuMTU3OCAzMC4zNTY1QzIyLjgzMTQgMzAuMDM0MiAyMy40MjQ0IDI5LjU2NTEgMjMuODkzIDI4Ljk4MzdDMjMuOTQ3IDI4LjkxODcgMjMuOTk5IDI4Ljg1NDcgMjQuMDQ4IDI4Ljc4OTdDMjQuMTI0IDI4Ljg3NjcgMjQuMjA2IDI4Ljk2MzcgMjQuMjkzIDI5LjA1MDdDMjQuOTE2IDI5LjY1MTcgMjUuNjU0MiAzMC4xMjA0IDI2LjQ2MzEgMzAuNDI4NkMyNy4yNzIxIDMwLjczNjcgMjguMTM1IDMwLjg3NzkgMjkgMzAuODQzN0MyOS4yNjUyIDMwLjg0MzcgMjkuNTE5NiAzMC43MzgzIDI5LjcwNzEgMzAuNTUwOEMyOS44OTQ2IDMwLjM2MzIgMzAgMzAuMTA4OSAzMCAyOS44NDM3QzMwIDI5LjU3ODUgMjkuODk0NiAyOS4zMjQxIDI5LjcwNzEgMjkuMTM2NkMyOS41MTk2IDI4Ljk0OSAyOS4yNjUyIDI4Ljg0MzcgMjkgMjguODQzN1oiLz4mI3hhOzwvc3ZnPg==" parent="gxo681l_O-IEjd7Bf2fG-1" vertex="1">
          <mxGeometry x="477" y="292.97" width="71.82" height="74.06" as="geometry" />
        </mxCell>
        <mxCell id="gxo681l_O-IEjd7Bf2fG-10" value="Silver" style="shape=image;verticalLabelPosition=bottom;verticalAlign=top;imageAspect=0;aspect=fixed;image=data:image/svg+xml,PHN2ZyB4bWxucz0iaHR0cDovL3d3dy53My5vcmcvMjAwMC9zdmciIGZpbGw9Im5vbmUiIHZpZXdCb3g9IjAgMCAzMiAzMyIgaGVpZ2h0PSIzMyIgd2lkdGg9IjMyIj4mI3hhOzxwYXRoIGZpbGw9ImJsYWNrIiBkPSJNMTIuNjI2IDQuMzkwMDJDMTMuMzk3IDMuNjYxNzQgMTQuNjAzIDMuNjYxNzQgMTUuMzc0IDQuMzkwMDJMMjUuMDYxIDEzLjU0MDNDMjUuNjYwNCAxNC4xMDY0IDI2IDE0Ljg5NDEgMjYgMTUuNzE4MlYxOC42MDYyQzI1Ljc5OSAxOC40MjY0IDI1LjU3NCAxOC4yNzQgMjUuMzMwNyAxOC4xNTM4QzI0LjkxNyAxNy45NDkyIDI0LjQ2MTUgMTcuODQzMiAyNCAxNy44NDM4VjE1LjcxODJDMjQgMTUuNDQzNSAyMy44ODY4IDE1LjE4MSAyMy42ODcgMTQuOTkyMkwxNCA1Ljg0MTk4TDQuMzEyOTkgMTQuOTkyMkM0LjExMzIgMTUuMTgxIDQgMTUuNDQzNSA0IDE1LjcxODJWMjYuODQ2NkM0IDI3LjM5ODMgNC40NDc3MiAyNy44NDU2IDUgMjcuODQ1Nkg4Ljc2MjNDOC4yNzI2NyAyOC4zOTM5IDggMjkuMTA0OCA4IDI5Ljg0MzhMNSAyOS44NDM4QzMuMzQzMTQgMjkuODQzOCAyIDI4LjUwMTkgMiAyNi44NDY2VjE1LjcxODJDMiAxNC44OTQxIDIuMzM5NjEgMTQuMTA2NCAyLjkzODk2IDEzLjU0MDNMMTIuNjI2IDQuMzkwMDJaIi8+JiN4YTs8cGF0aCBmaWxsPSJibGFjayIgZD0iTTI5IDIyLjg0MzdDMjguMzk3OSAyMi44NzczIDI3Ljc5NTIgMjIuNzg3NiAyNy4yMjg5IDIyLjU4QzI2LjY2MjcgMjIuMzcyNSAyNi4xNDQ4IDIyLjA1MTUgMjUuNzA3IDIxLjYzNjdDMjUuNDY1OCAyMS4zOTY0IDI1LjI1OTEgMjEuMTIzOCAyNS4wOTMgMjAuODI2N0MyNS4wNTI2IDIwLjc1MDYgMjUuMDE2MyAyMC42NzI1IDI0Ljk4NCAyMC41OTI3QzI0Ljk0OTMgMjAuNTA1OSAyNC45MDkyIDIwLjQyMTQgMjQuODY0IDIwLjMzOTdDMjQuODQzNyAyMC4zMDUgMjQuODIxNCAyMC4yNzE2IDI0Ljc5NyAyMC4yMzk3QzI0LjY3MTkgMjAuMDc1MyAyNC40OTkgMTkuOTUzNyAyNC4zMDIxIDE5Ljg5MTZDMjQuMTA1MSAxOS44Mjk1IDIzLjg5MzcgMTkuODI5OCAyMy42OTcgMTkuODkyN0gyMy42ODdDMjMuNDU2NiAxOS45NzA5IDIzLjI2MTggMjAuMTI5MiAyMy4xMzggMjAuMzM4N0MyMy4wODYxIDIwLjQzNTMgMjMuMDQxMyAyMC41MzU1IDIzLjAwNCAyMC42Mzg3TDIyLjk5MzUgMjAuNjY0OEMyMi45NjYxIDIwLjczMzIgMjIuOTM4NiAyMC44MDE5IDIyLjkwNCAyMC44NjY3QzIyLjc1NDEgMjEuMTY2IDIyLjU3MDkgMjEuNDQ3NCAyMi4zNTggMjEuNzA1N0MyMi4wNzY1IDIyLjA2MTEgMjEuNzE4MiAyMi4zNDgyIDIxLjMxMDEgMjIuNTQ1NUMyMC45MDE5IDIyLjc0MjkgMjAuNDU0NCAyMi44NDU0IDIwLjAwMSAyMi44NDU0QzE5LjU0NzYgMjIuODQ1NCAxOS4xMDAxIDIyLjc0MjkgMTguNjkxOSAyMi41NDU1QzE4LjI4MzggMjIuMzQ4MiAxNy45MjU1IDIyLjA2MTEgMTcuNjQ0IDIxLjcwNTdDMTcuNDMxMSAyMS40NDc0IDE3LjI0NzkgMjEuMTY2IDE3LjA5OCAyMC44NjY3QzE3LjA3MTEgMjAuODEzNiAxNy4wNDc5IDIwLjc1NzkgMTcuMDI0NiAyMC43MDE5QzE3LjAxNTggMjAuNjgwOCAxNy4wMDcgMjAuNjU5NyAxNi45OTggMjAuNjM4N0MxNi45NjA3IDIwLjUzNTUgMTYuOTE1OSAyMC40MzUzIDE2Ljg2NCAyMC4zMzg3QzE2Ljc0MDIgMjAuMTI5MiAxNi41NDU0IDE5Ljk3MDkgMTYuMzE1IDE5Ljg5MjdIMTYuMzA1QzE2LjEwODMgMTkuODI5OCAxNS44OTY5IDE5LjgyOTUgMTUuNjk5OSAxOS44OTE2QzE1LjUwMyAxOS45NTM3IDE1LjMzMDEgMjAuMDc1MyAxNS4yMDUgMjAuMjM5N0MxNS4xODA2IDIwLjI3MTYgMTUuMTU4MyAyMC4zMDUgMTUuMTM4IDIwLjMzOTdDMTUuMDkyOCAyMC40MjE0IDE1LjA1MjcgMjAuNTA1OSAxNS4wMTggMjAuNTkyN0MxNC45ODU3IDIwLjY3MjUgMTQuOTQ5NCAyMC43NTA2IDE0LjkwOSAyMC44MjY3QzE0Ljc0MjkgMjEuMTIzOCAxNC41MzYyIDIxLjM5NjQgMTQuMjk1IDIxLjYzNjdDMTMuODU3IDIyLjA1MTcgMTMuMzM4NyAyMi4zNzI5IDEyLjc3MjEgMjIuNTgwNEMxMi4yMDU1IDIyLjc4OCAxMS42MDI1IDIyLjg3NzYgMTEgMjIuODQzN0MxMC43MzQ4IDIyLjg0MzcgMTAuNDgwNCAyMi45NDkgMTAuMjkyOSAyMy4xMzY2QzEwLjEwNTQgMjMuMzI0MSAxMCAyMy41Nzg1IDEwIDIzLjg0MzdDMTAgMjQuMTA4OSAxMC4xMDU0IDI0LjM2MzIgMTAuMjkyOSAyNC41NTA4QzEwLjQ4MDQgMjQuNzM4MyAxMC43MzQ4IDI0Ljg0MzcgMTEgMjQuODQzN0MxMS44NjUgMjQuODc3OSAxMi43Mjc5IDI0LjczNjcgMTMuNTM2OSAyNC40Mjg2QzE0LjM0NTggMjQuMTIwNCAxNS4wODQgMjMuNjUxNyAxNS43MDcgMjMuMDUwN0MxNS43OTQgMjIuOTYzNyAxNS44NzYgMjIuODc2NyAxNS45NTIgMjIuNzg5N0MxNi4wMDEgMjIuODU0NyAxNi4wNTIgMjIuOTE4NyAxNi4xMDcgMjIuOTgzN0MxNi41NzU2IDIzLjU2NTEgMTcuMTY4NiAyNC4wMzQyIDE3Ljg0MjIgMjQuMzU2NUMxOC41MTU5IDI0LjY3ODggMTkuMjUzMiAyNC44NDYxIDIwIDI0Ljg0NjFDMjAuNzQ2OCAyNC44NDYxIDIxLjQ4NDEgMjQuNjc4OCAyMi4xNTc4IDI0LjM1NjVDMjIuODMxNCAyNC4wMzQyIDIzLjQyNDQgMjMuNTY1MSAyMy44OTMgMjIuOTgzN0MyMy45NDcgMjIuOTE4NyAyMy45OTkgMjIuODU0NyAyNC4wNDggMjIuNzg5N0MyNC4xMjQgMjIuODc2NyAyNC4yMDYgMjIuOTYzNyAyNC4yOTMgMjMuMDUwN0MyNC45MTYgMjMuNjUxNyAyNS42NTQyIDI0LjEyMDQgMjYuNDYzMSAyNC40Mjg2QzI3LjI3MjEgMjQuNzM2NyAyOC4xMzUgMjQuODc3OSAyOSAyNC44NDM3QzI5LjI2NTIgMjQuODQzNyAyOS41MTk2IDI0LjczODMgMjkuNzA3MSAyNC41NTA4QzI5Ljg5NDYgMjQuMzYzMiAzMCAyNC4xMDg5IDMwIDIzLjg0MzdDMzAgMjMuNTc4NSAyOS44OTQ2IDIzLjMyNDEgMjkuNzA3MSAyMy4xMzY2QzI5LjUxOTYgMjIuOTQ5IDI5LjI2NTIgMjIuODQzNyAyOSAyMi44NDM3WiIvPiYjeGE7PHBhdGggZmlsbD0iYmxhY2siIGQ9Ik0yOSAyOC44NDM3QzI4LjM5NzkgMjguODc3MyAyNy43OTUyIDI4Ljc4NzYgMjcuMjI4OSAyOC41OEMyNi42NjI3IDI4LjM3MjUgMjYuMTQ0OCAyOC4wNTE1IDI1LjcwNyAyNy42MzY3QzI1LjQ2NTggMjcuMzk2NCAyNS4yNTkxIDI3LjEyMzggMjUuMDkzIDI2LjgyNjdDMjUuMDUyNiAyNi43NTA2IDI1LjAxNjMgMjYuNjcyNSAyNC45ODQgMjYuNTkyN0MyNC45NDkzIDI2LjUwNTkgMjQuOTA5MiAyNi40MjE0IDI0Ljg2NCAyNi4zMzk3QzI0Ljg0MzcgMjYuMzA1IDI0LjgyMTQgMjYuMjcxNiAyNC43OTcgMjYuMjM5N0MyNC42NzE5IDI2LjA3NTMgMjQuNDk5IDI1Ljk1MzcgMjQuMzAyMSAyNS44OTE2QzI0LjEwNTEgMjUuODI5NSAyMy44OTM3IDI1LjgyOTggMjMuNjk3IDI1Ljg5MjdIMjMuNjg3QzIzLjQ1NjYgMjUuOTcwOSAyMy4yNjE4IDI2LjEyOTIgMjMuMTM4IDI2LjMzODdDMjMuMDg2MSAyNi40MzUzIDIzLjA0MTMgMjYuNTM1NSAyMy4wMDQgMjYuNjM4N0wyMi45OTM1IDI2LjY2NDhDMjIuOTY2MSAyNi43MzMyIDIyLjkzODYgMjYuODAxOSAyMi45MDQgMjYuODY2N0MyMi43NTQxIDI3LjE2NiAyMi41NzA5IDI3LjQ0NzQgMjIuMzU4IDI3LjcwNTdDMjIuMDc2NSAyOC4wNjExIDIxLjcxODIgMjguMzQ4MiAyMS4zMTAxIDI4LjU0NTVDMjAuOTAxOSAyOC43NDI5IDIwLjQ1NDQgMjguODQ1NCAyMC4wMDEgMjguODQ1NEMxOS41NDc2IDI4Ljg0NTQgMTkuMTAwMSAyOC43NDI5IDE4LjY5MTkgMjguNTQ1NUMxOC4yODM4IDI4LjM0ODIgMTcuOTI1NSAyOC4wNjExIDE3LjY0NCAyNy43MDU3QzE3LjQzMTEgMjcuNDQ3NCAxNy4yNDc5IDI3LjE2NiAxNy4wOTggMjYuODY2N0MxNy4wNzExIDI2LjgxMzYgMTcuMDQ3OSAyNi43NTc5IDE3LjAyNDYgMjYuNzAxOUMxNy4wMTU4IDI2LjY4MDggMTcuMDA3IDI2LjY1OTcgMTYuOTk4IDI2LjYzODdDMTYuOTYwNyAyNi41MzU1IDE2LjkxNTkgMjYuNDM1MyAxNi44NjQgMjYuMzM4N0MxNi43NDAyIDI2LjEyOTIgMTYuNTQ1NCAyNS45NzA5IDE2LjMxNSAyNS44OTI3SDE2LjMwNUMxNi4xMDgzIDI1LjgyOTggMTUuODk2OSAyNS44Mjk1IDE1LjY5OTkgMjUuODkxNkMxNS41MDMgMjUuOTUzNyAxNS4zMzAxIDI2LjA3NTMgMTUuMjA1IDI2LjIzOTdDMTUuMTgwNiAyNi4yNzE2IDE1LjE1ODMgMjYuMzA1IDE1LjEzOCAyNi4zMzk3QzE1LjA5MjggMjYuNDIxNCAxNS4wNTI3IDI2LjUwNTkgMTUuMDE4IDI2LjU5MjdDMTQuOTg1NyAyNi42NzI1IDE0Ljk0OTQgMjYuNzUwNiAxNC45MDkgMjYuODI2N0MxNC43NDI5IDI3LjEyMzggMTQuNTM2MiAyNy4zOTY0IDE0LjI5NSAyNy42MzY3QzEzLjg1NyAyOC4wNTE3IDEzLjMzODcgMjguMzcyOSAxMi43NzIxIDI4LjU4MDRDMTIuMjA1NSAyOC43ODggMTEuNjAyNSAyOC44Nzc2IDExIDI4Ljg0MzdDMTAuNzM0OCAyOC44NDM3IDEwLjQ4MDQgMjguOTQ5IDEwLjI5MjkgMjkuMTM2NkMxMC4xMDU0IDI5LjMyNDEgMTAgMjkuNTc4NSAxMCAyOS44NDM3QzEwIDMwLjEwODkgMTAuMTA1NCAzMC4zNjMyIDEwLjI5MjkgMzAuNTUwOEMxMC40ODA0IDMwLjczODMgMTAuNzM0OCAzMC44NDM3IDExIDMwLjg0MzdDMTEuODY1IDMwLjg3NzkgMTIuNzI3OSAzMC43MzY3IDEzLjUzNjkgMzAuNDI4NkMxNC4zNDU4IDMwLjEyMDQgMTUuMDg0IDI5LjY1MTcgMTUuNzA3IDI5LjA1MDdDMTUuNzk0IDI4Ljk2MzcgMTUuODc2IDI4Ljg3NjcgMTUuOTUyIDI4Ljc4OTdDMTYuMDAxIDI4Ljg1NDcgMTYuMDUyIDI4LjkxODcgMTYuMTA3IDI4Ljk4MzdDMTYuNTc1NiAyOS41NjUxIDE3LjE2ODYgMzAuMDM0MiAxNy44NDIyIDMwLjM1NjVDMTguNTE1OSAzMC42Nzg4IDE5LjI1MzIgMzAuODQ2MSAyMCAzMC44NDYxQzIwLjc0NjggMzAuODQ2MSAyMS40ODQxIDMwLjY3ODggMjIuMTU3OCAzMC4zNTY1QzIyLjgzMTQgMzAuMDM0MiAyMy40MjQ0IDI5LjU2NTEgMjMuODkzIDI4Ljk4MzdDMjMuOTQ3IDI4LjkxODcgMjMuOTk5IDI4Ljg1NDcgMjQuMDQ4IDI4Ljc4OTdDMjQuMTI0IDI4Ljg3NjcgMjQuMjA2IDI4Ljk2MzcgMjQuMjkzIDI5LjA1MDdDMjQuOTE2IDI5LjY1MTcgMjUuNjU0MiAzMC4xMjA0IDI2LjQ2MzEgMzAuNDI4NkMyNy4yNzIxIDMwLjczNjcgMjguMTM1IDMwLjg3NzkgMjkgMzAuODQzN0MyOS4yNjUyIDMwLjg0MzcgMjkuNTE5NiAzMC43MzgzIDI5LjcwNzEgMzAuNTUwOEMyOS44OTQ2IDMwLjM2MzIgMzAgMzAuMTA4OSAzMCAyOS44NDM3QzMwIDI5LjU3ODUgMjkuODk0NiAyOS4zMjQxIDI5LjcwNzEgMjkuMTM2NkMyOS41MTk2IDI4Ljk0OSAyOS4yNjUyIDI4Ljg0MzcgMjkgMjguODQzN1oiLz4mI3hhOzwvc3ZnPg==" parent="gxo681l_O-IEjd7Bf2fG-1" vertex="1">
          <mxGeometry x="361.32000000000005" y="292.96999999999997" width="71.82" height="74.06" as="geometry" />
        </mxCell>
        <mxCell id="gxo681l_O-IEjd7Bf2fG-11" value="" style="rounded=0;whiteSpace=wrap;html=1;fillColor=#fff2cc;strokeColor=#d6b656;" parent="gxo681l_O-IEjd7Bf2fG-1" vertex="1">
          <mxGeometry x="201" y="86" width="370" height="140" as="geometry" />
        </mxCell>
        <mxCell id="gxo681l_O-IEjd7Bf2fG-12" value="&lt;div&gt;Databricks&lt;br&gt;&lt;/div&gt;" style="image;aspect=fixed;html=1;points=[];align=left;fontSize=12;image=img/lib/azure2/analytics/Azure_Databricks.svg;labelPosition=right;verticalLabelPosition=middle;verticalAlign=middle;labelBackgroundColor=none;" parent="gxo681l_O-IEjd7Bf2fG-1" vertex="1">
          <mxGeometry x="188.14000000000001" y="71" width="46.18" height="50" as="geometry" />
        </mxCell>
        <mxCell id="gxo681l_O-IEjd7Bf2fG-13" value="Notebooks" style="rounded=0;whiteSpace=wrap;html=1;labelPosition=center;verticalLabelPosition=top;align=center;verticalAlign=bottom;" parent="gxo681l_O-IEjd7Bf2fG-1" vertex="1">
          <mxGeometry x="291" y="133" width="200" height="60" as="geometry" />
        </mxCell>
        <mxCell id="gxo681l_O-IEjd7Bf2fG-14" value="" style="shape=image;verticalLabelPosition=bottom;verticalAlign=top;imageAspect=0;aspect=fixed;image=data:image/svg+xml,PHN2ZyB4bWxucz0iaHR0cDovL3d3dy53My5vcmcvMjAwMC9zdmciIGZpbGw9Im5vbmUiIHZpZXdCb3g9IjAgMCAzMiAzMyIgaGVpZ2h0PSIzMyIgd2lkdGg9IjMyIj4mI3hhOzxwYXRoIGZpbGw9ImJsYWNrIiBkPSJNOCA3LjkzNzU2QzggNy4xMDkxMyA4LjY3MTU3IDYuNDM3NTYgOS41IDYuNDM3NTZIMjEuNUMyMi4zMjg0IDYuNDM3NTYgMjMgNy4xMDkxMyAyMyA3LjkzNzU2VjEwLjkzNzZDMjMgMTEuNzY2IDIyLjMyODQgMTIuNDM3NiAyMS41IDEyLjQzNzZIOS41QzguNjcxNTcgMTIuNDM3NiA4IDExLjc2NiA4IDEwLjkzNzZWNy45Mzc1NlpNMTAgOC40Mzc1NlYxMC40Mzc2SDIxVjguNDM3NTZIMTBaTTQgNS42ODc1NkM0IDMuODkyNjMgNS40NTUwOCAyLjQzNzU2IDcuMjUgMi40Mzc1NkgyMy43NUMyNS41NDQ5IDIuNDM3NTYgMjcgMy44OTI2NCAyNyA1LjY4NzU2VjI3LjE4NzZDMjcgMjguOTgyNSAyNS41NDQ5IDMwLjQzNzYgMjMuNzUgMzAuNDM3Nkg3LjI1QzUuNDU1MDcgMzAuNDM3NiA0IDI4Ljk4MjUgNCAyNy4xODc2VjUuNjg3NTZaTTcuMjUgNC40Mzc1NkM2LjU1OTY0IDQuNDM3NTYgNiA0Ljk5NzIgNiA1LjY4NzU2VjI3LjE4NzZDNiAyNy44Nzc5IDYuNTU5NjQgMjguNDM3NiA3LjI1IDI4LjQzNzZIMjMuNzVDMjQuNDQwNCAyOC40Mzc2IDI1IDI3Ljg3NzkgMjUgMjcuMTg3NlY1LjY4NzU2QzI1IDQuOTk3MjEgMjQuNDQwNCA0LjQzNzU2IDIzLjc1IDQuNDM3NTZINy4yNVpNMjkuMjUgOC40Mzc1NkgyOFYxMi40Mzc2SDI5LjI1QzI5LjY2NDIgMTIuNDM3NiAzMCAxMi4xMDE4IDMwIDExLjY4NzZWOS4xODc1NkMzMCA4Ljc3MzM1IDI5LjY2NDIgOC40Mzc1NiAyOS4yNSA4LjQzNzU2Wk0yOCAxNC40Mzc2SDI5LjI1QzI5LjY2NDIgMTQuNDM3NiAzMCAxNC43NzMzIDMwIDE1LjE4NzZWMTcuNjg3NkMzMCAxOC4xMDE4IDI5LjY2NDIgMTguNDM3NiAyOS4yNSAxOC40Mzc2SDI4VjE0LjQzNzZaTTI5LjI1IDIwLjQzNzZIMjhWMjQuNDM3NkgyOS4yNUMyOS42NjQyIDI0LjQzNzYgMzAgMjQuMTAxOCAzMCAyMy42ODc2VjIxLjE4NzZDMzAgMjAuNzczMyAyOS42NjQyIDIwLjQzNzYgMjkuMjUgMjAuNDM3NloiLz4mI3hhOzwvc3ZnPg==" parent="gxo681l_O-IEjd7Bf2fG-1" vertex="1">
          <mxGeometry x="312.82000000000005" y="150.02999999999997" width="32" height="33" as="geometry" />
        </mxCell>
        <mxCell id="gxo681l_O-IEjd7Bf2fG-15" value="" style="shape=image;verticalLabelPosition=bottom;verticalAlign=top;imageAspect=0;aspect=fixed;image=data:image/svg+xml,PHN2ZyB4bWxucz0iaHR0cDovL3d3dy53My5vcmcvMjAwMC9zdmciIGZpbGw9Im5vbmUiIHZpZXdCb3g9IjAgMCAzMiAzMyIgaGVpZ2h0PSIzMyIgd2lkdGg9IjMyIj4mI3hhOzxwYXRoIGZpbGw9ImJsYWNrIiBkPSJNOCA3LjkzNzU2QzggNy4xMDkxMyA4LjY3MTU3IDYuNDM3NTYgOS41IDYuNDM3NTZIMjEuNUMyMi4zMjg0IDYuNDM3NTYgMjMgNy4xMDkxMyAyMyA3LjkzNzU2VjEwLjkzNzZDMjMgMTEuNzY2IDIyLjMyODQgMTIuNDM3NiAyMS41IDEyLjQzNzZIOS41QzguNjcxNTcgMTIuNDM3NiA4IDExLjc2NiA4IDEwLjkzNzZWNy45Mzc1NlpNMTAgOC40Mzc1NlYxMC40Mzc2SDIxVjguNDM3NTZIMTBaTTQgNS42ODc1NkM0IDMuODkyNjMgNS40NTUwOCAyLjQzNzU2IDcuMjUgMi40Mzc1NkgyMy43NUMyNS41NDQ5IDIuNDM3NTYgMjcgMy44OTI2NCAyNyA1LjY4NzU2VjI3LjE4NzZDMjcgMjguOTgyNSAyNS41NDQ5IDMwLjQzNzYgMjMuNzUgMzAuNDM3Nkg3LjI1QzUuNDU1MDcgMzAuNDM3NiA0IDI4Ljk4MjUgNCAyNy4xODc2VjUuNjg3NTZaTTcuMjUgNC40Mzc1NkM2LjU1OTY0IDQuNDM3NTYgNiA0Ljk5NzIgNiA1LjY4NzU2VjI3LjE4NzZDNiAyNy44Nzc5IDYuNTU5NjQgMjguNDM3NiA3LjI1IDI4LjQzNzZIMjMuNzVDMjQuNDQwNCAyOC40Mzc2IDI1IDI3Ljg3NzkgMjUgMjcuMTg3NlY1LjY4NzU2QzI1IDQuOTk3MjEgMjQuNDQwNCA0LjQzNzU2IDIzLjc1IDQuNDM3NTZINy4yNVpNMjkuMjUgOC40Mzc1NkgyOFYxMi40Mzc2SDI5LjI1QzI5LjY2NDIgMTIuNDM3NiAzMCAxMi4xMDE4IDMwIDExLjY4NzZWOS4xODc1NkMzMCA4Ljc3MzM1IDI5LjY2NDIgOC40Mzc1NiAyOS4yNSA4LjQzNzU2Wk0yOCAxNC40Mzc2SDI5LjI1QzI5LjY2NDIgMTQuNDM3NiAzMCAxNC43NzMzIDMwIDE1LjE4NzZWMTcuNjg3NkMzMCAxOC4xMDE4IDI5LjY2NDIgMTguNDM3NiAyOS4yNSAxOC40Mzc2SDI4VjE0LjQzNzZaTTI5LjI1IDIwLjQzNzZIMjhWMjQuNDM3NkgyOS4yNUMyOS42NjQyIDI0LjQzNzYgMzAgMjQuMTAxOCAzMCAyMy42ODc2VjIxLjE4NzZDMzAgMjAuNzczMyAyOS42NjQyIDIwLjQzNzYgMjkuMjUgMjAuNDM3NloiLz4mI3hhOzwvc3ZnPg==" parent="gxo681l_O-IEjd7Bf2fG-1" vertex="1">
          <mxGeometry x="433" y="150" width="32" height="33" as="geometry" />
        </mxCell>
        <mxCell id="gxo681l_O-IEjd7Bf2fG-16" value="Microsoft Fabric" style="shape=image;verticalLabelPosition=bottom;verticalAlign=top;imageAspect=0;aspect=fixed;image=data:image/svg+xml,PHN2ZyB4bWxucz0iaHR0cDovL3d3dy53My5vcmcvMjAwMC9zdmciIGZpbGw9Im5vbmUiIHZpZXdCb3g9IjAgMCAyNTYgMjU2IiBoZWlnaHQ9IjI1NiIgd2lkdGg9IjI1NiI+JiN4YTs8ZyBjbGlwLXBhdGg9InVybCgjY2xpcDBfMTI2M18xMjQ1OTApIj4mI3hhOzxwYXRoIGZpbGw9InVybCgjcGFpbnQwX2xpbmVhcl8xMjYzXzEyNDU5MCkiIGQ9Ik0xMC40OTYgMTc2LjYzNEw2Ljc0NjY5IDE5MC4zNTZDNS4zNDkzNyAxOTQuNzQ2IDMuMzkyMDUgMjAxLjE5NCAyLjMzNjA2IDIwNi45MzJDMC44MzIwNjkgMjEwLjkgMC4wMTA3NDIyIDIxNS4yMDQgMC4wMTA3NDIyIDIxOS43QzAuMDEwNzQyMiAyMzguMjM5IDE0LjAxNiAyNTMuNTAyIDMyLjAyMTIgMjU1LjQ5N0MzNy4wODc4IDI1Ni4yMjggNDIuODIxMSAyNTYuMTkgNDkuMjQ3NyAyNTUuMjQ2TDc4Ljc3MjggMjUxLjE3MkM4Ni4xOTY3IDI1MC4xNDggOTIuMjkyNyAyNDQuNzg4IDk0LjI2NiAyMzcuNTU2TDExNC41ODYgMTYyLjkyMkwxMC40OTYgMTc2LjYzNFoiIGNsaXAtcnVsZT0iZXZlbm9kZCIgZmlsbC1ydWxlPSJldmVub2RkIi8+JiN4YTs8cGF0aCBmaWxsPSJ1cmwoI3BhaW50MV9saW5lYXJfMTI2M18xMjQ1OTApIiBkPSJNMzkuMjk0MiAxODAuMTdDOC4xNzQ0NCAxODQuOTkxIDEuNzg1MTYgMjA4LjQ3NCAxLjc4NTE2IDIwOC40NzRMMzEuNTg3NiA5OC45NzA4TDE4Ny4zMTQgNzcuOTA0M0wxNjYuMDc3IDE1NS4wNEMxNjQuOTczIDE1OS4xNzMgMTYxLjUwMSAxNjIuMzQxIDE1Ny4xOTcgMTYyLjk5N0wxNTYuMzI4IDE2My4xNDFMMzguNDE5NSAxODAuMzJMMzkuMjk0MiAxODAuMTdaIi8+JiN4YTs8cGF0aCBmaWxsLW9wYWNpdHk9IjAuOCIgZmlsbD0idXJsKCNwYWludDJfbGluZWFyXzEyNjNfMTI0NTkwKSIgZD0iTTM5LjI5NDIgMTgwLjE3QzguMTc0NDQgMTg0Ljk5MSAxLjc4NTE2IDIwOC40NzQgMS43ODUxNiAyMDguNDc0TDMxLjU4NzYgOTguOTcwOEwxODcuMzE0IDc3LjkwNDNMMTY2LjA3NyAxNTUuMDRDMTY0Ljk3MyAxNTkuMTczIDE2MS41MDEgMTYyLjM0MSAxNTcuMTk3IDE2Mi45OTdMMTU2LjMyOCAxNjMuMTQxTDM4LjQxOTUgMTgwLjMyTDM5LjI5NDIgMTgwLjE3WiIvPiYjeGE7PHBhdGggZmlsbD0idXJsKCNwYWludDNfbGluZWFyXzEyNjNfMTI0NTkwKSIgZD0iTTU2Ljk1MzIgMTEwLjMwM0wyMjkuMzUyIDg0LjgzNjdDMjMzLjQ1MyA4NC4yNzY3IDIzNi43NzYgODEuMjc0IDIzNy44MjEgNzcuMzQzNEwyNTUuNjEzIDEyLjk1NDZDMjU1Ljg1OCAxMi4wNzk5IDI1NS45ODYgMTEuMTU3MiAyNTUuOTg2IDEwLjIwNzlDMjU1Ljk4NiA0LjU3MDYzIDI1MS40MjEgMCAyNDUuNzc4IDBDMjQ1LjM0MSAwIDI0NC45MDQgMC4wMjY2NjY1IDI0NC40ODIgMC4wNzk5OTk0TDc5Ljk4MjQgMjQuMzg5MUM2Mi4xMTU4IDI3LjI1ODUgNDcuNjg5MyA0MC40MzcgNDMuMDA2NyA1Ny42MjYyTDE5LjI4NDIgMTQzLjYwNEMyNC4wNDY4IDEyNi4yMTIgMjYuOTc0OCAxMTUuNzI3IDU2Ljk1MzIgMTEwLjMwM1oiLz4mI3hhOzxwYXRoIGZpbGw9InVybCgjcGFpbnQ0X2xpbmVhcl8xMjYzXzEyNDU5MCkiIGQ9Ik01Ni45NTMyIDExMC4zMDNMMjI5LjM1MiA4NC44MzY3QzIzMy40NTMgODQuMjc2NyAyMzYuNzc2IDgxLjI3NCAyMzcuODIxIDc3LjM0MzRMMjU1LjYxMyAxMi45NTQ2QzI1NS44NTggMTIuMDc5OSAyNTUuOTg2IDExLjE1NzIgMjU1Ljk4NiAxMC4yMDc5QzI1NS45ODYgNC41NzA2MyAyNTEuNDIxIDAgMjQ1Ljc3OCAwQzI0NS4zNDEgMCAyNDQuOTA0IDAuMDI2NjY2NSAyNDQuNDgyIDAuMDc5OTk5NEw3OS45ODI0IDI0LjM4OTFDNjIuMTE1OCAyNy4yNTg1IDQ3LjY4OTMgNDAuNDM3IDQzLjAwNjcgNTcuNjI2MkwxOS4yODQyIDE0My42MDRDMjQuMDQ2OCAxMjYuMjEyIDI2Ljk3NDggMTE1LjcyNyA1Ni45NTMyIDExMC4zMDNaIi8+JiN4YTs8cGF0aCBmaWxsPSJ1cmwoI3BhaW50NV9saW5lYXJfMTI2M18xMjQ1OTApIiBkPSJNNTYuOTUzMiAxMTAuMzAzTDIyOS4zNTIgODQuODM2N0MyMzMuNDUzIDg0LjI3NjcgMjM2Ljc3NiA4MS4yNzQgMjM3LjgyMSA3Ny4zNDM0TDI1NS42MTMgMTIuOTU0NkMyNTUuODU4IDEyLjA3OTkgMjU1Ljk4NiAxMS4xNTcyIDI1NS45ODYgMTAuMjA3OUMyNTUuOTg2IDQuNTcwNjMgMjUxLjQyMSAwIDI0NS43NzggMEMyNDUuMzQxIDAgMjQ0LjkwNCAwLjAyNjY2NjUgMjQ0LjQ4MiAwLjA3OTk5OTRMNzkuOTgyNCAyNC4zODkxQzYyLjExNTggMjcuMjU4NSA0Ny42ODkzIDQwLjQzNyA0My4wMDY3IDU3LjYyNjJMMTkuMjg0MiAxNDMuNjA0QzI0LjA0NjggMTI2LjIxMiAyNi45NzQ4IDExNS43MjcgNTYuOTUzMiAxMTAuMzAzWiIvPiYjeGE7PHBhdGggZmlsbD0idXJsKCNwYWludDZfbGluZWFyXzEyNjNfMTI0NTkwKSIgZD0iTTU2Ljk1MzIgMTEwLjMwM0wyMjkuMzUyIDg0LjgzNjdDMjMzLjQ1MyA4NC4yNzY3IDIzNi43NzYgODEuMjc0IDIzNy44MjEgNzcuMzQzNEwyNTUuNjEzIDEyLjk1NDZDMjU1Ljg1OCAxMi4wNzk5IDI1NS45ODYgMTEuMTU3MiAyNTUuOTg2IDEwLjIwNzlDMjU1Ljk4NiA0LjU3MDYzIDI1MS40MjEgMCAyNDUuNzc4IDBDMjQ1LjM0MSAwIDI0NC45MDQgMC4wMjY2NjY1IDI0NC40ODIgMC4wNzk5OTk0TDc5Ljk4MjQgMjQuMzg5MUM2Mi4xMTU4IDI3LjI1ODUgNDcuNjg5MyA0MC40MzcgNDMuMDA2NyA1Ny42MjYyTDE5LjI4NDIgMTQzLjYwNEMyNC4wNDY4IDEyNi4yMTIgMjYuOTc0OCAxMTUuNzI3IDU2Ljk1MzIgMTEwLjMwM1oiLz4mI3hhOzxwYXRoIGZpbGw9InVybCgjcGFpbnQ3X2xpbmVhcl8xMjYzXzEyNDU5MCkiIGQ9Ik01Ni45NTMyIDExMC4zMDNMMjI5LjM1MiA4NC44MzY3QzIzMy40NTMgODQuMjc2NyAyMzYuNzc2IDgxLjI3NCAyMzcuODIxIDc3LjM0MzRMMjU1LjYxMyAxMi45NTQ2QzI1NS44NTggMTIuMDc5OSAyNTUuOTg2IDExLjE1NzIgMjU1Ljk4NiAxMC4yMDc5QzI1NS45ODYgNC41NzA2MyAyNTEuNDIxIDAgMjQ1Ljc3OCAwQzI0NS4zNDEgMCAyNDQuOTA0IDAuMDI2NjY2NSAyNDQuNDgyIDAuMDc5OTk5NEw3OS45ODI0IDI0LjM4OTFDNjIuMTE1OCAyNy4yNTg1IDQ3LjY4OTMgNDAuNDM3IDQzLjAwNjcgNTcuNjI2MkwxOS4yODQyIDE0My42MDRDMjQuMDQ2OCAxMjYuMjEyIDI2Ljk3NDggMTE1LjcyNyA1Ni45NTMyIDExMC4zMDNaIi8+JiN4YTs8cGF0aCBmaWxsPSJ1cmwoI3BhaW50OF9saW5lYXJfMTI2M18xMjQ1OTApIiBkPSJNNTYuOTUzMiAxMTAuMzAzTDIyOS4zNTIgODQuODM2N0MyMzMuNDUzIDg0LjI3NjcgMjM2Ljc3NiA4MS4yNzQgMjM3LjgyMSA3Ny4zNDM0TDI1NS42MTMgMTIuOTU0NkMyNTUuODU4IDEyLjA3OTkgMjU1Ljk4NiAxMS4xNTcyIDI1NS45ODYgMTAuMjA3OUMyNTUuOTg2IDQuNTcwNjMgMjUxLjQyMSAwIDI0NS43NzggMEMyNDUuMzQxIDAgMjQ0LjkwNCAwLjAyNjY2NjUgMjQ0LjQ4MiAwLjA3OTk5OTRMNzkuOTgyNCAyNC4zODkxQzYyLjExNTggMjcuMjU4NSA0Ny42ODkzIDQwLjQzNyA0My4wMDY3IDU3LjYyNjJMMTkuMjg0MiAxNDMuNjA0QzI0LjA0NjggMTI2LjIxMiAyNi45NzQ4IDExNS43MjcgNTYuOTUzMiAxMTAuMzAzWiIvPiYjeGE7PHBhdGggZmlsbC1vcGFjaXR5PSIwLjQiIGZpbGw9InVybCgjcGFpbnQ5X2xpbmVhcl8xMjYzXzEyNDU5MCkiIGQ9Ik01Ni45NTMyIDExMC4zMDNMMjI5LjM1MiA4NC44MzY3QzIzMy40NTMgODQuMjc2NyAyMzYuNzc2IDgxLjI3NCAyMzcuODIxIDc3LjM0MzRMMjU1LjYxMyAxMi45NTQ2QzI1NS44NTggMTIuMDc5OSAyNTUuOTg2IDExLjE1NzIgMjU1Ljk4NiAxMC4yMDc5QzI1NS45ODYgNC41NzA2MyAyNTEuNDIxIDAgMjQ1Ljc3OCAwQzI0NS4zNDEgMCAyNDQuOTA0IDAuMDI2NjY2NSAyNDQuNDgyIDAuMDc5OTk5NEw3OS45ODI0IDI0LjM4OTFDNjIuMTE1OCAyNy4yNTg1IDQ3LjY4OTMgNDAuNDM3IDQzLjAwNjcgNTcuNjI2MkwxOS4yODQyIDE0My42MDRDMjQuMDQ2OCAxMjYuMjEyIDI2Ljk3NDggMTE1LjcyNyA1Ni45NTMyIDExMC4zMDNaIi8+JiN4YTs8cGF0aCBmaWxsPSJ1cmwoI3BhaW50MTBfbGluZWFyXzEyNjNfMTI0NTkwKSIgZD0iTTU2Ljk1MjcgMTEwLjMwOUMzMS45ODc2IDExNC44MjcgMjUuNzkwMyAxMjIuODY5IDIxLjY2MjMgMTM1LjQ3MkwxLjc4NTE2IDIwOC40OUMxLjc4NTE2IDIwOC40OSA4LjEzNzExIDE4NS4yNDIgMzguODc4MiAxODAuMjcxTDE1Ni4zMzMgMTYzLjE2MkwxNTcuMjAzIDE2My4wMThDMTYxLjUwNyAxNjIuMzYyIDE2NC45NzkgMTU5LjE4OSAxNjYuMDgzIDE1NS4wNjFMMTgzLjU1NCA5MS42MDU1TDU2Ljk1ODEgMTEwLjMwOUg1Ni45NTI3WiIvPiYjeGE7PHBhdGggZmlsbC1vcGFjaXR5PSIwLjIiIGZpbGw9InVybCgjcGFpbnQxMV9saW5lYXJfMTI2M18xMjQ1OTApIiBkPSJNNTYuOTUyNyAxMTAuMzA5QzMxLjk4NzYgMTE0LjgyNyAyNS43OTAzIDEyMi44NjkgMjEuNjYyMyAxMzUuNDcyTDEuNzg1MTYgMjA4LjQ5QzEuNzg1MTYgMjA4LjQ5IDguMTM3MTEgMTg1LjI0MiAzOC44NzgyIDE4MC4yNzFMMTU2LjMzMyAxNjMuMTYyTDE1Ny4yMDMgMTYzLjAxOEMxNjEuNTA3IDE2Mi4zNjIgMTY0Ljk3OSAxNTkuMTg5IDE2Ni4wODMgMTU1LjA2MUwxODMuNTU0IDkxLjYwNTVMNTYuOTU4MSAxMTAuMzA5SDU2Ljk1MjdaIi8+JiN4YTs8cGF0aCBmaWxsPSJ1cmwoI3BhaW50MTJfbGluZWFyXzEyNjNfMTI0NTkwKSIgZD0iTTM4Ljg3OTggMTgwLjI3MkMxMi45MDEzIDE4NC40NzUgNC4zNjgwNCAyMDEuNjggMi4zMzYwNiAyMDYuOTIzQzAuODMyMDY5IDIxMC45MDEgMC4wMTA3NDIyIDIxNS4yMDUgMC4wMTA3NDIyIDIxOS43MDFDMC4wMTA3NDIyIDIzOC4yNCAxNC4wMTYgMjUzLjUwNCAzMi4wMjEyIDI1NS40OThDMzcuMDg3OCAyNTYuMjI5IDQyLjgyMTEgMjU2LjE5MiA0OS4yNDc3IDI1NS4yNDhMNzguNzcyOCAyNTEuMTczQzg2LjE5NjcgMjUwLjE0OSA5Mi4yOTI3IDI0NC43ODkgOTQuMjY2IDIzNy41NTdMMTEyLjc4OSAxNjkuNTFMMzguODg1MSAxODAuMjc4TDM4Ljg3OTggMTgwLjI3MloiIGNsaXAtcnVsZT0iZXZlbm9kZCIgZmlsbC1ydWxlPSJldmVub2RkIi8+JiN4YTs8L2c+JiN4YTs8ZGVmcz4mI3hhOzxsaW5lYXJHcmFkaWVudCBncmFkaWVudFVuaXRzPSJ1c2VyU3BhY2VPblVzZSIgeTI9IjE2Mi45MjIiIHgyPSI1Ny4yOTU2IiB5MT0iMjU2LjAwNCIgeDE9IjU3LjI5NTYiIGlkPSJwYWludDBfbGluZWFyXzEyNjNfMTI0NTkwIj4mI3hhOzxzdG9wIHN0b3AtY29sb3I9IiMyQUFDOTQiIG9mZnNldD0iMC4wNTYiLz4mI3hhOzxzdG9wIHN0b3AtY29sb3I9IiMyMzlDODciIG9mZnNldD0iMC4xNTUiLz4mI3hhOzxzdG9wIHN0b3AtY29sb3I9IiMxNzdFNzEiIG9mZnNldD0iMC4zNzIiLz4mI3hhOzxzdG9wIHN0b3AtY29sb3I9IiMwRTY5NjEiIG9mZnNldD0iMC41ODgiLz4mI3hhOzxzdG9wIHN0b3AtY29sb3I9IiMwOTVENTciIG9mZnNldD0iMC43OTkiLz4mI3hhOzxzdG9wIHN0b3AtY29sb3I9IiMwODU5NTQiIG9mZnNldD0iMSIvPiYjeGE7PC9saW5lYXJHcmFkaWVudD4mI3hhOzxsaW5lYXJHcmFkaWVudCBncmFkaWVudFVuaXRzPSJ1c2VyU3BhY2VPblVzZSIgeTI9IjkwLjcwNDIiIHgyPSI4NS4wMzI1IiB5MT0iMTg4LjQ2NSIgeDE9IjE3NC45MTYiIGlkPSJwYWludDFfbGluZWFyXzEyNjNfMTI0NTkwIj4mI3hhOzxzdG9wIHN0b3AtY29sb3I9IiNBQkU4OEUiIG9mZnNldD0iMC4wNDE3NDc4Ii8+JiN4YTs8c3RvcCBzdG9wLWNvbG9yPSIjMkFBQTkyIiBvZmZzZXQ9IjAuNTQ4OTI2Ii8+JiN4YTs8c3RvcCBzdG9wLWNvbG9yPSIjMTE3ODY1IiBvZmZzZXQ9IjAuOTA2Ii8+JiN4YTs8L2xpbmVhckdyYWRpZW50PiYjeGE7PGxpbmVhckdyYWRpZW50IGdyYWRpZW50VW5pdHM9InVzZXJTcGFjZU9uVXNlIiB5Mj0iMTU0LjU0MiIgeDI9IjM5LjU3MTEiIHkxPSIxODMuNzEyIiB4MT0iLTQ1Ljk2NiIgaWQ9InBhaW50Ml9saW5lYXJfMTI2M18xMjQ1OTAiPiYjeGE7PHN0b3Agc3RvcC1jb2xvcj0iIzZBRDZGOSIvPiYjeGE7PHN0b3Agc3RvcC1vcGFjaXR5PSIwIiBzdG9wLWNvbG9yPSIjNkFENkY5IiBvZmZzZXQ9IjEiLz4mI3hhOzwvbGluZWFyR3JhZGllbnQ+JiN4YTs8bGluZWFyR3JhZGllbnQgZ3JhZGllbnRVbml0cz0idXNlclNwYWNlT25Vc2UiIHkyPSI3MS44MDIxIiB4Mj0iMjQ2Ljk2OCIgeTE9IjcxLjgwMjEiIHgxPSIxOS4yODQyIiBpZD0icGFpbnQzX2xpbmVhcl8xMjYzXzEyNDU5MCI+JiN4YTs8c3RvcCBzdG9wLWNvbG9yPSIjMjVGRkQ0IiBvZmZzZXQ9IjAuMDQzIi8+JiN4YTs8c3RvcCBzdG9wLWNvbG9yPSIjNTVEREI5IiBvZmZzZXQ9IjAuODc0Ii8+JiN4YTs8L2xpbmVhckdyYWRpZW50PiYjeGE7PGxpbmVhckdyYWRpZW50IGdyYWRpZW50VW5pdHM9InVzZXJTcGFjZU9uVXNlIiB5Mj0iMTE0LjYxMiIgeDI9IjE1NS43NDciIHkxPSI5LjkwOTI2IiB4MT0iMTA2LjkyMSIgaWQ9InBhaW50NF9saW5lYXJfMTI2M18xMjQ1OTAiPiYjeGE7PHN0b3Agc3RvcC1vcGFjaXR5PSIwLjYiIHN0b3AtY29sb3I9IiNGNEUwODQiLz4mI3hhOzxzdG9wIHN0b3Atb3BhY2l0eT0iMCIgc3RvcC1jb2xvcj0iI0Y0RTA4NCIgb2Zmc2V0PSIwLjUzNCIvPiYjeGE7PC9saW5lYXJHcmFkaWVudD4mI3hhOzxsaW5lYXJHcmFkaWVudCBncmFkaWVudFVuaXRzPSJ1c2VyU3BhY2VPblVzZSIgeTI9IjQ1LjgzNSIgeDI9IjI1My45OCIgeTE9Ii01NS4yNjQxIiB4MT0iMTg4LjE2MiIgaWQ9InBhaW50NV9saW5lYXJfMTI2M18xMjQ1OTAiPiYjeGE7PHN0b3Agc3RvcC1jb2xvcj0iI0FCRjVFMiIvPiYjeGE7PHN0b3Agc3RvcC1jb2xvcj0iIzRFRTZCRCIgb2Zmc2V0PSIxIi8+JiN4YTs8L2xpbmVhckdyYWRpZW50PiYjeGE7PGxpbmVhckdyYWRpZW50IGdyYWRpZW50VW5pdHM9InVzZXJTcGFjZU9uVXNlIiB5Mj0iMTQzLjYwNCIgeDI9IjEzNy42MzUiIHkxPSIwIiB4MT0iMTM3LjYzNSIgaWQ9InBhaW50Nl9saW5lYXJfMTI2M18xMjQ1OTAiPiYjeGE7PHN0b3Agc3RvcC1jb2xvcj0iIzFGOTM3RSIvPiYjeGE7PHN0b3Agc3RvcC1jb2xvcj0iIzlFRTA5RiIgb2Zmc2V0PSIxIi8+JiN4YTs8L2xpbmVhckdyYWRpZW50PiYjeGE7PGxpbmVhckdyYWRpZW50IGdyYWRpZW50VW5pdHM9InVzZXJTcGFjZU9uVXNlIiB5Mj0iMTQzLjYwNCIgeDI9IjEzNy42MzUiIHkxPSIwIiB4MT0iMTM3LjYzNSIgaWQ9InBhaW50N19saW5lYXJfMTI2M18xMjQ1OTAiPiYjeGE7PHN0b3Agc3RvcC1jb2xvcj0iIzFGOTM3RSIvPiYjeGE7PHN0b3Agc3RvcC1jb2xvcj0iI0MwRUNDNyIgb2Zmc2V0PSIxIi8+JiN4YTs8L2xpbmVhckdyYWRpZW50PiYjeGE7PGxpbmVhckdyYWRpZW50IGdyYWRpZW50VW5pdHM9InVzZXJTcGFjZU9uVXNlIiB5Mj0iMTM1LjIxNiIgeDI9IjIyNC4zODIiIHkxPSIzOS45NzgzIiB4MT0iMTkuMjg0MiIgaWQ9InBhaW50OF9saW5lYXJfMTI2M18xMjQ1OTAiPiYjeGE7PHN0b3Agc3RvcC1jb2xvcj0iIzZBRDZGOSIvPiYjeGE7PHN0b3Agc3RvcC1jb2xvcj0iIzYwRTlEMCIgb2Zmc2V0PSIwLjIyOTUwMSIvPiYjeGE7PHN0b3Agc3RvcC1jb2xvcj0iIzZERTlCQiIgb2Zmc2V0PSIwLjY1MDcxMSIvPiYjeGE7PHN0b3Agc3RvcC1jb2xvcj0iI0FCRTg4RSIgb2Zmc2V0PSIwLjk5MzU0Ii8+JiN4YTs8L2xpbmVhckdyYWRpZW50PiYjeGE7PGxpbmVhckdyYWRpZW50IGdyYWRpZW50VW5pdHM9InVzZXJTcGFjZU9uVXNlIiB5Mj0iODIuNDY2IiB4Mj0iMTQ5Ljc4MSIgeTE9IjU3LjgiIHgxPSIzOC4yNTgiIGlkPSJwYWludDlfbGluZWFyXzEyNjNfMTI0NTkwIj4mI3hhOzxzdG9wIHN0b3Atb3BhY2l0eT0iMCIgc3RvcC1jb2xvcj0id2hpdGUiLz4mI3hhOzxzdG9wIHN0b3AtY29sb3I9IndoaXRlIiBvZmZzZXQ9IjAuNDU4NTExIi8+JiN4YTs8c3RvcCBzdG9wLW9wYWNpdHk9IjAiIHN0b3AtY29sb3I9IndoaXRlIiBvZmZzZXQ9IjEiLz4mI3hhOzwvbGluZWFyR3JhZGllbnQ+JiN4YTs8bGluZWFyR3JhZGllbnQgZ3JhZGllbnRVbml0cz0idXNlclNwYWNlT25Vc2UiIHkyPSI3NS4xMzI4IiB4Mj0iNzcuODcyMiIgeTE9IjE1My4zNDEiIHgxPSI3NS4yMzciIGlkPSJwYWludDEwX2xpbmVhcl8xMjYzXzEyNDU5MCI+JiN4YTs8c3RvcCBzdG9wLW9wYWNpdHk9IjAiIHN0b3AtY29sb3I9IiMwNjNEM0IiIG9mZnNldD0iMC4yMDQ2NDIiLz4mI3hhOzxzdG9wIHN0b3Atb3BhY2l0eT0iMC4yMzY1ODciIHN0b3AtY29sb3I9IiMwNjNEM0IiIG9mZnNldD0iMC41ODU1MyIvPiYjeGE7PHN0b3Agc3RvcC1vcGFjaXR5PSIwLjc1IiBzdG9wLWNvbG9yPSIjMDYzRDNCIiBvZmZzZXQ9IjAuODcyMjg1Ii8+JiN4YTs8L2xpbmVhckdyYWRpZW50PiYjeGE7PGxpbmVhckdyYWRpZW50IGdyYWRpZW50VW5pdHM9InVzZXJTcGFjZU9uVXNlIiB5Mj0iMTYzLjQ4NyIgeDI9Ijg3LjY4NjEiIHkxPSIxNDUuNTYzIiB4MT0iLTcuNjE3OTciIGlkPSJwYWludDExX2xpbmVhcl8xMjYzXzEyNDU5MCI+JiN4YTs8c3RvcCBzdG9wLW9wYWNpdHk9IjAiIHN0b3AtY29sb3I9IndoaXRlIi8+JiN4YTs8c3RvcCBzdG9wLWNvbG9yPSJ3aGl0ZSIgb2Zmc2V0PSIwLjQ1ODUxMSIvPiYjeGE7PHN0b3Agc3RvcC1vcGFjaXR5PSIwIiBzdG9wLWNvbG9yPSJ3aGl0ZSIgb2Zmc2V0PSIxIi8+JiN4YTs8L2xpbmVhckdyYWRpZW50PiYjeGE7PGxpbmVhckdyYWRpZW50IGdyYWRpZW50VW5pdHM9InVzZXJTcGFjZU9uVXNlIiB5Mj0iMTM5LjI5MiIgeDI9IjQyLjYzNTkiIHkxPSIyMzAuMjEzIiB4MT0iNjEuMjI2MyIgaWQ9InBhaW50MTJfbGluZWFyXzEyNjNfMTI0NTkwIj4mI3hhOzxzdG9wIHN0b3Atb3BhY2l0eT0iMCIgc3RvcC1jb2xvcj0iIzA2M0QzQiIgb2Zmc2V0PSIwLjA2NCIvPiYjeGE7PHN0b3Agc3RvcC1vcGFjaXR5PSIwLjEzNSIgc3RvcC1jb2xvcj0iIzA2M0QzQiIgb2Zmc2V0PSIwLjE3Ii8+JiN4YTs8c3RvcCBzdG9wLW9wYWNpdHk9IjAuNTk5IiBzdG9wLWNvbG9yPSIjMDYzRDNCIiBvZmZzZXQ9IjAuNTYyIi8+JiN4YTs8c3RvcCBzdG9wLW9wYWNpdHk9IjAuOSIgc3RvcC1jb2xvcj0iIzA2M0QzQiIgb2Zmc2V0PSIwLjg1Ii8+JiN4YTs8c3RvcCBzdG9wLWNvbG9yPSIjMDYzRDNCIiBvZmZzZXQ9IjEiLz4mI3hhOzwvbGluZWFyR3JhZGllbnQ+JiN4YTs8Y2xpcFBhdGggaWQ9ImNsaXAwXzEyNjNfMTI0NTkwIj4mI3hhOzxyZWN0IGZpbGw9IndoaXRlIiBoZWlnaHQ9IjI1NS45OTgiIHdpZHRoPSIyNTUuOTk4Ii8+JiN4YTs8L2NsaXBQYXRoPiYjeGE7PC9kZWZzPiYjeGE7PC9zdmc+;labelPosition=center;align=center;" parent="gxo681l_O-IEjd7Bf2fG-1" vertex="1">
          <mxGeometry x="781" y="423" width="46" height="46" as="geometry" />
        </mxCell>
        <mxCell id="gxo681l_O-IEjd7Bf2fG-17" value="Data sources" style="text;strokeColor=none;align=left;fillColor=none;html=1;verticalAlign=middle;whiteSpace=wrap;rounded=0;fontSize=17;fontStyle=1" parent="gxo681l_O-IEjd7Bf2fG-1" vertex="1">
          <mxGeometry x="7.460000000000001" y="36" width="126" height="30" as="geometry" />
        </mxCell>
        <mxCell id="gxo681l_O-IEjd7Bf2fG-18" value="Prepare and transform" style="text;strokeColor=none;align=left;fillColor=none;html=1;verticalAlign=middle;whiteSpace=wrap;rounded=0;fontSize=17;fontStyle=1" parent="gxo681l_O-IEjd7Bf2fG-1" vertex="1">
          <mxGeometry x="187" y="36" width="220" height="30" as="geometry" />
        </mxCell>
        <mxCell id="gxo681l_O-IEjd7Bf2fG-19" value="Reports" style="text;strokeColor=none;align=left;fillColor=none;html=1;verticalAlign=middle;whiteSpace=wrap;rounded=0;fontSize=17;fontStyle=1" parent="gxo681l_O-IEjd7Bf2fG-1" vertex="1">
          <mxGeometry x="625" y="36" width="80" height="30" as="geometry" />
        </mxCell>
        <mxCell id="gxo681l_O-IEjd7Bf2fG-20" value="" style="endArrow=classic;html=1;rounded=0;" parent="gxo681l_O-IEjd7Bf2fG-1" edge="1">
          <mxGeometry width="50" height="50" relative="1" as="geometry">
            <mxPoint x="403.82" y="305" as="sourcePoint" />
            <mxPoint x="432.91" y="175" as="targetPoint" />
          </mxGeometry>
        </mxCell>
        <mxCell id="gxo681l_O-IEjd7Bf2fG-21" value="" style="endArrow=classic;html=1;rounded=0;" parent="gxo681l_O-IEjd7Bf2fG-1" edge="1">
          <mxGeometry width="50" height="50" relative="1" as="geometry">
            <mxPoint x="344.82" y="180" as="sourcePoint" />
            <mxPoint x="381" y="303" as="targetPoint" />
          </mxGeometry>
        </mxCell>
        <mxCell id="gxo681l_O-IEjd7Bf2fG-22" value="" style="endArrow=classic;html=1;rounded=0;" parent="gxo681l_O-IEjd7Bf2fG-1" edge="1">
          <mxGeometry width="50" height="50" relative="1" as="geometry">
            <mxPoint x="462.82" y="181" as="sourcePoint" />
            <mxPoint x="499" y="304" as="targetPoint" />
          </mxGeometry>
        </mxCell>
        <mxCell id="gxo681l_O-IEjd7Bf2fG-23" value="" style="rounded=0;whiteSpace=wrap;html=1;fillColor=#fff2cc;strokeColor=#d6b656;" parent="gxo681l_O-IEjd7Bf2fG-1" vertex="1">
          <mxGeometry x="182.82" y="503" width="507.18" height="153" as="geometry" />
        </mxCell>
        <mxCell id="gxo681l_O-IEjd7Bf2fG-24" value="Risk" style="text;strokeColor=none;align=left;fillColor=none;html=1;verticalAlign=middle;whiteSpace=wrap;rounded=0;fontSize=17;fontStyle=1" parent="gxo681l_O-IEjd7Bf2fG-1" vertex="1">
          <mxGeometry x="187" y="626" width="220" height="30" as="geometry" />
        </mxCell>
        <mxCell id="gxo681l_O-IEjd7Bf2fG-25" value="Databricks" style="image;aspect=fixed;html=1;points=[];align=left;fontSize=12;image=img/lib/azure2/analytics/Azure_Databricks.svg;labelPosition=right;verticalLabelPosition=middle;verticalAlign=middle;labelBackgroundColor=none;" parent="gxo681l_O-IEjd7Bf2fG-1" vertex="1">
          <mxGeometry x="168.14000000000001" y="486" width="46.18" height="50" as="geometry" />
        </mxCell>
        <mxCell id="gxo681l_O-IEjd7Bf2fG-26" value="Notebooks" style="rounded=0;whiteSpace=wrap;html=1;labelPosition=center;verticalLabelPosition=bottom;align=center;verticalAlign=top;" parent="gxo681l_O-IEjd7Bf2fG-1" vertex="1">
          <mxGeometry x="349" y="536" width="200" height="60" as="geometry" />
        </mxCell>
        <mxCell id="gxo681l_O-IEjd7Bf2fG-27" value="" style="shape=image;verticalLabelPosition=bottom;verticalAlign=top;imageAspect=0;aspect=fixed;image=data:image/svg+xml,PHN2ZyB4bWxucz0iaHR0cDovL3d3dy53My5vcmcvMjAwMC9zdmciIGZpbGw9Im5vbmUiIHZpZXdCb3g9IjAgMCAzMiAzMyIgaGVpZ2h0PSIzMyIgd2lkdGg9IjMyIj4mI3hhOzxwYXRoIGZpbGw9ImJsYWNrIiBkPSJNOCA3LjkzNzU2QzggNy4xMDkxMyA4LjY3MTU3IDYuNDM3NTYgOS41IDYuNDM3NTZIMjEuNUMyMi4zMjg0IDYuNDM3NTYgMjMgNy4xMDkxMyAyMyA3LjkzNzU2VjEwLjkzNzZDMjMgMTEuNzY2IDIyLjMyODQgMTIuNDM3NiAyMS41IDEyLjQzNzZIOS41QzguNjcxNTcgMTIuNDM3NiA4IDExLjc2NiA4IDEwLjkzNzZWNy45Mzc1NlpNMTAgOC40Mzc1NlYxMC40Mzc2SDIxVjguNDM3NTZIMTBaTTQgNS42ODc1NkM0IDMuODkyNjMgNS40NTUwOCAyLjQzNzU2IDcuMjUgMi40Mzc1NkgyMy43NUMyNS41NDQ5IDIuNDM3NTYgMjcgMy44OTI2NCAyNyA1LjY4NzU2VjI3LjE4NzZDMjcgMjguOTgyNSAyNS41NDQ5IDMwLjQzNzYgMjMuNzUgMzAuNDM3Nkg3LjI1QzUuNDU1MDcgMzAuNDM3NiA0IDI4Ljk4MjUgNCAyNy4xODc2VjUuNjg3NTZaTTcuMjUgNC40Mzc1NkM2LjU1OTY0IDQuNDM3NTYgNiA0Ljk5NzIgNiA1LjY4NzU2VjI3LjE4NzZDNiAyNy44Nzc5IDYuNTU5NjQgMjguNDM3NiA3LjI1IDI4LjQzNzZIMjMuNzVDMjQuNDQwNCAyOC40Mzc2IDI1IDI3Ljg3NzkgMjUgMjcuMTg3NlY1LjY4NzU2QzI1IDQuOTk3MjEgMjQuNDQwNCA0LjQzNzU2IDIzLjc1IDQuNDM3NTZINy4yNVpNMjkuMjUgOC40Mzc1NkgyOFYxMi40Mzc2SDI5LjI1QzI5LjY2NDIgMTIuNDM3NiAzMCAxMi4xMDE4IDMwIDExLjY4NzZWOS4xODc1NkMzMCA4Ljc3MzM1IDI5LjY2NDIgOC40Mzc1NiAyOS4yNSA4LjQzNzU2Wk0yOCAxNC40Mzc2SDI5LjI1QzI5LjY2NDIgMTQuNDM3NiAzMCAxNC43NzMzIDMwIDE1LjE4NzZWMTcuNjg3NkMzMCAxOC4xMDE4IDI5LjY2NDIgMTguNDM3NiAyOS4yNSAxOC40Mzc2SDI4VjE0LjQzNzZaTTI5LjI1IDIwLjQzNzZIMjhWMjQuNDM3NkgyOS4yNUMyOS42NjQyIDI0LjQzNzYgMzAgMjQuMTAxOCAzMCAyMy42ODc2VjIxLjE4NzZDMzAgMjAuNzczMyAyOS42NjQyIDIwLjQzNzYgMjkuMjUgMjAuNDM3NloiLz4mI3hhOzwvc3ZnPg==" parent="gxo681l_O-IEjd7Bf2fG-1" vertex="1">
          <mxGeometry x="375" y="550" width="32" height="33" as="geometry" />
        </mxCell>
        <mxCell id="gxo681l_O-IEjd7Bf2fG-28" value="" style="shape=image;verticalLabelPosition=bottom;verticalAlign=top;imageAspect=0;aspect=fixed;image=data:image/svg+xml,PHN2ZyB4bWxucz0iaHR0cDovL3d3dy53My5vcmcvMjAwMC9zdmciIGZpbGw9Im5vbmUiIHZpZXdCb3g9IjAgMCAzMiAzMyIgaGVpZ2h0PSIzMyIgd2lkdGg9IjMyIj4mI3hhOzxwYXRoIGZpbGw9ImJsYWNrIiBkPSJNOCA3LjkzNzU2QzggNy4xMDkxMyA4LjY3MTU3IDYuNDM3NTYgOS41IDYuNDM3NTZIMjEuNUMyMi4zMjg0IDYuNDM3NTYgMjMgNy4xMDkxMyAyMyA3LjkzNzU2VjEwLjkzNzZDMjMgMTEuNzY2IDIyLjMyODQgMTIuNDM3NiAyMS41IDEyLjQzNzZIOS41QzguNjcxNTcgMTIuNDM3NiA4IDExLjc2NiA4IDEwLjkzNzZWNy45Mzc1NlpNMTAgOC40Mzc1NlYxMC40Mzc2SDIxVjguNDM3NTZIMTBaTTQgNS42ODc1NkM0IDMuODkyNjMgNS40NTUwOCAyLjQzNzU2IDcuMjUgMi40Mzc1NkgyMy43NUMyNS41NDQ5IDIuNDM3NTYgMjcgMy44OTI2NCAyNyA1LjY4NzU2VjI3LjE4NzZDMjcgMjguOTgyNSAyNS41NDQ5IDMwLjQzNzYgMjMuNzUgMzAuNDM3Nkg3LjI1QzUuNDU1MDcgMzAuNDM3NiA0IDI4Ljk4MjUgNCAyNy4xODc2VjUuNjg3NTZaTTcuMjUgNC40Mzc1NkM2LjU1OTY0IDQuNDM3NTYgNiA0Ljk5NzIgNiA1LjY4NzU2VjI3LjE4NzZDNiAyNy44Nzc5IDYuNTU5NjQgMjguNDM3NiA3LjI1IDI4LjQzNzZIMjMuNzVDMjQuNDQwNCAyOC40Mzc2IDI1IDI3Ljg3NzkgMjUgMjcuMTg3NlY1LjY4NzU2QzI1IDQuOTk3MjEgMjQuNDQwNCA0LjQzNzU2IDIzLjc1IDQuNDM3NTZINy4yNVpNMjkuMjUgOC40Mzc1NkgyOFYxMi40Mzc2SDI5LjI1QzI5LjY2NDIgMTIuNDM3NiAzMCAxMi4xMDE4IDMwIDExLjY4NzZWOS4xODc1NkMzMCA4Ljc3MzM1IDI5LjY2NDIgOC40Mzc1NiAyOS4yNSA4LjQzNzU2Wk0yOCAxNC40Mzc2SDI5LjI1QzI5LjY2NDIgMTQuNDM3NiAzMCAxNC43NzMzIDMwIDE1LjE4NzZWMTcuNjg3NkMzMCAxOC4xMDE4IDI5LjY2NDIgMTguNDM3NiAyOS4yNSAxOC40Mzc2SDI4VjE0LjQzNzZaTTI5LjI1IDIwLjQzNzZIMjhWMjQuNDM3NkgyOS4yNUMyOS42NjQyIDI0LjQzNzYgMzAgMjQuMTAxOCAzMCAyMy42ODc2VjIxLjE4NzZDMzAgMjAuNzczMyAyOS42NjQyIDIwLjQzNzYgMjkuMjUgMjAuNDM3NloiLz4mI3hhOzwvc3ZnPg==" parent="gxo681l_O-IEjd7Bf2fG-1" vertex="1">
          <mxGeometry x="433.14" y="549.5" width="32" height="33" as="geometry" />
        </mxCell>
        <mxCell id="gxo681l_O-IEjd7Bf2fG-29" value="" style="shape=image;verticalLabelPosition=bottom;verticalAlign=top;imageAspect=0;aspect=fixed;image=data:image/svg+xml,PHN2ZyB4bWxucz0iaHR0cDovL3d3dy53My5vcmcvMjAwMC9zdmciIGZpbGw9Im5vbmUiIHZpZXdCb3g9IjAgMCAzMiAzMyIgaGVpZ2h0PSIzMyIgd2lkdGg9IjMyIj4mI3hhOzxwYXRoIGZpbGw9ImJsYWNrIiBkPSJNOCA3LjkzNzU2QzggNy4xMDkxMyA4LjY3MTU3IDYuNDM3NTYgOS41IDYuNDM3NTZIMjEuNUMyMi4zMjg0IDYuNDM3NTYgMjMgNy4xMDkxMyAyMyA3LjkzNzU2VjEwLjkzNzZDMjMgMTEuNzY2IDIyLjMyODQgMTIuNDM3NiAyMS41IDEyLjQzNzZIOS41QzguNjcxNTcgMTIuNDM3NiA4IDExLjc2NiA4IDEwLjkzNzZWNy45Mzc1NlpNMTAgOC40Mzc1NlYxMC40Mzc2SDIxVjguNDM3NTZIMTBaTTQgNS42ODc1NkM0IDMuODkyNjMgNS40NTUwOCAyLjQzNzU2IDcuMjUgMi40Mzc1NkgyMy43NUMyNS41NDQ5IDIuNDM3NTYgMjcgMy44OTI2NCAyNyA1LjY4NzU2VjI3LjE4NzZDMjcgMjguOTgyNSAyNS41NDQ5IDMwLjQzNzYgMjMuNzUgMzAuNDM3Nkg3LjI1QzUuNDU1MDcgMzAuNDM3NiA0IDI4Ljk4MjUgNCAyNy4xODc2VjUuNjg3NTZaTTcuMjUgNC40Mzc1NkM2LjU1OTY0IDQuNDM3NTYgNiA0Ljk5NzIgNiA1LjY4NzU2VjI3LjE4NzZDNiAyNy44Nzc5IDYuNTU5NjQgMjguNDM3NiA3LjI1IDI4LjQzNzZIMjMuNzVDMjQuNDQwNCAyOC40Mzc2IDI1IDI3Ljg3NzkgMjUgMjcuMTg3NlY1LjY4NzU2QzI1IDQuOTk3MjEgMjQuNDQwNCA0LjQzNzU2IDIzLjc1IDQuNDM3NTZINy4yNVpNMjkuMjUgOC40Mzc1NkgyOFYxMi40Mzc2SDI5LjI1QzI5LjY2NDIgMTIuNDM3NiAzMCAxMi4xMDE4IDMwIDExLjY4NzZWOS4xODc1NkMzMCA4Ljc3MzM1IDI5LjY2NDIgOC40Mzc1NiAyOS4yNSA4LjQzNzU2Wk0yOCAxNC40Mzc2SDI5LjI1QzI5LjY2NDIgMTQuNDM3NiAzMCAxNC43NzMzIDMwIDE1LjE4NzZWMTcuNjg3NkMzMCAxOC4xMDE4IDI5LjY2NDIgMTguNDM3NiAyOS4yNSAxOC40Mzc2SDI4VjE0LjQzNzZaTTI5LjI1IDIwLjQzNzZIMjhWMjQuNDM3NkgyOS4yNUMyOS42NjQyIDI0LjQzNzYgMzAgMjQuMTAxOCAzMCAyMy42ODc2VjIxLjE4NzZDMzAgMjAuNzczMyAyOS42NjQyIDIwLjQzNzYgMjkuMjUgMjAuNDM3NloiLz4mI3hhOzwvc3ZnPg==" parent="gxo681l_O-IEjd7Bf2fG-1" vertex="1">
          <mxGeometry x="496.90999999999997" y="549.5" width="32" height="33" as="geometry" />
        </mxCell>
        <mxCell id="gxo681l_O-IEjd7Bf2fG-30" value="" style="endArrow=classic;startArrow=classic;html=1;rounded=0;" parent="gxo681l_O-IEjd7Bf2fG-1" edge="1">
          <mxGeometry width="50" height="50" relative="1" as="geometry">
            <mxPoint x="395" y="549.5" as="sourcePoint" />
            <mxPoint x="395.5" y="389.5" as="targetPoint" />
          </mxGeometry>
        </mxCell>
        <mxCell id="gxo681l_O-IEjd7Bf2fG-31" value="" style="endArrow=classic;startArrow=classic;html=1;rounded=0;" parent="gxo681l_O-IEjd7Bf2fG-1" edge="1">
          <mxGeometry width="50" height="50" relative="1" as="geometry">
            <mxPoint x="512.41" y="550" as="sourcePoint" />
            <mxPoint x="512.91" y="390" as="targetPoint" />
          </mxGeometry>
        </mxCell>
        <mxCell id="gxo681l_O-IEjd7Bf2fG-32" value="" style="sketch=0;outlineConnect=0;fontColor=#232F3E;gradientColor=none;fillColor=#232F3D;strokeColor=none;dashed=0;verticalLabelPosition=bottom;verticalAlign=top;align=center;html=1;fontSize=12;fontStyle=0;aspect=fixed;pointerEvents=1;shape=mxgraph.aws4.users;" parent="gxo681l_O-IEjd7Bf2fG-1" vertex="1">
          <mxGeometry x="256.91" y="550" width="40" height="40" as="geometry" />
        </mxCell>
        <mxCell id="gxo681l_O-IEjd7Bf2fG-33" value="" style="rounded=0;whiteSpace=wrap;html=1;dashed=1;dashPattern=8 8;fillColor=#dae8fc;strokeColor=#6c8ebf;" parent="gxo681l_O-IEjd7Bf2fG-1" vertex="1">
          <mxGeometry x="632.5" y="67" width="159" height="331" as="geometry" />
        </mxCell>
        <mxCell id="gxo681l_O-IEjd7Bf2fG-34" value="" style="sketch=0;outlineConnect=0;fontColor=#232F3E;gradientColor=none;fillColor=#232F3D;strokeColor=none;dashed=0;verticalLabelPosition=bottom;verticalAlign=top;align=center;html=1;fontSize=12;fontStyle=0;aspect=fixed;pointerEvents=1;shape=mxgraph.aws4.users;" parent="gxo681l_O-IEjd7Bf2fG-1" vertex="1">
          <mxGeometry x="692" y="81" width="40" height="40" as="geometry" />
        </mxCell>
        <mxCell id="gxo681l_O-IEjd7Bf2fG-35" value="" style="rounded=0;whiteSpace=wrap;html=1;" parent="gxo681l_O-IEjd7Bf2fG-1" vertex="1">
          <mxGeometry x="641" y="140" width="140" height="60" as="geometry" />
        </mxCell>
        <mxCell id="gxo681l_O-IEjd7Bf2fG-36" value="" style="shape=image;verticalLabelPosition=bottom;verticalAlign=top;imageAspect=0;aspect=fixed;image=data:image/svg+xml,PHN2ZyB4bWxucz0iaHR0cDovL3d3dy53My5vcmcvMjAwMC9zdmciIGZpbGw9Im5vbmUiIHZpZXdCb3g9IjAgMCAzMiAzMyIgaGVpZ2h0PSIzMyIgd2lkdGg9IjMyIj4mI3hhOzxwYXRoIGZpbGw9ImJsYWNrIiBkPSJNNSA3LjkyMTg3QzUgNi4yNjUwMiA2LjM0MzE1IDQuOTIxODggOCA0LjkyMTg4QzkuNjU2ODUgNC45MjE4OCAxMSA2LjI2NTAyIDExIDcuOTIxODhWMjUuOTIxOUMxMSAyNy41Nzg3IDkuNjU2ODUgMjguOTIxOSA4IDI4LjkyMTlDNi4zNDMxNSAyOC45MjE5IDUgMjcuNTc4NyA1IDI1LjkyMTlWNy45MjE4N1pNOCA2LjkyMTg4QzcuNDQ3NzEgNi45MjE4OCA3IDcuMzY5NTkgNyA3LjkyMTg3VjI1LjkyMTlDNyAyNi40NzQyIDcuNDQ3NzIgMjYuOTIxOSA4IDI2LjkyMTlDOC41NTIyOSAyNi45MjE5IDkgMjYuNDc0MiA5IDI1LjkyMTlWNy45MjE4OEM5IDcuMzY5NTkgOC41NTIyOCA2LjkyMTg4IDggNi45MjE4OFpNMTMgMTMuOTIxOUMxMyAxMi4yNjUgMTQuMzQzMSAxMC45MjE5IDE2IDEwLjkyMTlDMTcuNjU2OSAxMC45MjE5IDE5IDEyLjI2NSAxOSAxMy45MjE5VjI1LjkyMTlDMTkgMjcuNTc4NyAxNy42NTY5IDI4LjkyMTkgMTYgMjguOTIxOUMxNC4zNDMxIDI4LjkyMTkgMTMgMjcuNTc4NyAxMyAyNS45MjE5VjEzLjkyMTlaTTE2IDEyLjkyMTlDMTUuNDQ3NyAxMi45MjE5IDE1IDEzLjM2OTYgMTUgMTMuOTIxOVYyNS45MjE5QzE1IDI2LjQ3NDIgMTUuNDQ3NyAyNi45MjE5IDE2IDI2LjkyMTlDMTYuNTUyMyAyNi45MjE5IDE3IDI2LjQ3NDIgMTcgMjUuOTIxOVYxMy45MjE5QzE3IDEzLjM2OTYgMTYuNTUyMyAxMi45MjE5IDE2IDEyLjkyMTlaTTI0IDE2LjkyMTlDMjIuMzQzMSAxNi45MjE5IDIxIDE4LjI2NSAyMSAxOS45MjE5VjI1LjkyMTlDMjEgMjcuNTc4NyAyMi4zNDMxIDI4LjkyMTkgMjQgMjguOTIxOUMyNS42NTY5IDI4LjkyMTkgMjcgMjcuNTc4NyAyNyAyNS45MjE5VjE5LjkyMTlDMjcgMTguMjY1IDI1LjY1NjkgMTYuOTIxOSAyNCAxNi45MjE5Wk0yMyAxOS45MjE5QzIzIDE5LjM2OTYgMjMuNDQ3NyAxOC45MjE5IDI0IDE4LjkyMTlDMjQuNTUyMyAxOC45MjE5IDI1IDE5LjM2OTYgMjUgMTkuOTIxOVYyNS45MjE5QzI1IDI2LjQ3NDIgMjQuNTUyMyAyNi45MjE5IDI0IDI2LjkyMTlDMjMuNDQ3NyAyNi45MjE5IDIzIDI2LjQ3NDIgMjMgMjUuOTIxOVYxOS45MjE5WiIvPiYjeGE7PC9zdmc+" parent="gxo681l_O-IEjd7Bf2fG-1" vertex="1">
          <mxGeometry x="650" y="152" width="32" height="33" as="geometry" />
        </mxCell>
        <mxCell id="gxo681l_O-IEjd7Bf2fG-37" value="" style="shape=image;verticalLabelPosition=bottom;verticalAlign=top;imageAspect=0;aspect=fixed;image=data:image/svg+xml,PHN2ZyB4bWxucz0iaHR0cDovL3d3dy53My5vcmcvMjAwMC9zdmciIGZpbGw9Im5vbmUiIHZpZXdCb3g9IjAgMCAzMiAzMyIgaGVpZ2h0PSIzMyIgd2lkdGg9IjMyIj4mI3hhOzxwYXRoIGZpbGw9ImJsYWNrIiBkPSJNOSA2LjQ1MzEzQzkgNS40ODY2MyA5Ljc4MzUgNC43MDMxMiAxMC43NSA0LjcwMzEySDI4LjI1QzI5LjIxNjUgNC43MDMxMiAzMCA1LjQ4NjYzIDMwIDYuNDUzMTJWMjYuOTUzMUMzMCAyNy45MTk2IDI5LjIxNjUgMjguNzAzMSAyOC4yNSAyOC43MDMxSDEwLjc1QzkuNzgzNSAyOC43MDMxIDkgMjcuOTE5NiA5IDI2Ljk1MzFWMjMuNzAzMUgzLjI1QzIuNTU5NjQgMjMuNzAzMSAyIDIzLjE0MzUgMiAyMi40NTMxVjEwLjk1MzFDMiAxMC4yNjI4IDIuNTU5NjQgOS43MDMxMiAzLjI1IDkuNzAzMTJIOVY2LjQ1MzEzWk0xMSAyNi43MDMxSDE4LjVWMjMuNzAzMUgxMVYyNi43MDMxWk0xOC41IDIxLjcwMzFWMTcuNzAzMUgxNlYyMS43MDMxSDE4LjVaTTE4LjUgMTUuNzAzMVYxMS43MDMxSDE2VjE1LjcwMzFIMTguNVpNMTEgOS43MDMxMkgxOC41VjYuNzAzMTJIMTFWOS43MDMxMlpNMjAuNSAyMy43MDMxVjI2LjcwMzFIMjhWMjMuNzAzMUgyMC41Wk0yOCAyMS43MDMxVjE3LjcwMzFIMjAuNVYyMS43MDMxSDI4Wk0yOCAxMS43MDMxSDIwLjVWMTUuNzAzMUgyOFYxMS43MDMxWk0yOCA5LjcwMzEyVjYuNzAzMTJIMjAuNVY5LjcwMzEySDI4Wk03LjkyMzA0IDE2LjY5MUw1LjA5MTggMjEuMDc4Mkg3LjE0MTk4TDguODI2MTYgMTguMDAyOUM4LjkwNDEgMTcuODc4MyA4Ljk2NzU3IDE3Ljc0NTIgOS4wMTUzMiAxNy42MDYzSDkuMDM5NzJDOS4wOTI1OCAxNy43NDggOS4xNTc5MiAxNy44ODQ4IDkuMjM0OTggMTguMDE1MUwxMC44NzAyIDIxLjA3ODJIMTIuOTA4MkwxMC4xODA3IDE2LjY2NjZMMTIuODQxMSAxMi4zMjgySDEwLjkyNTFMOS40MTE4NiAxNS4wOTIzQzkuMzEwMTQgMTUuMjkxNyA5LjIxMjUxIDE1LjQ5NzEgOS4xMTg5OCAxNS43MDg2SDkuMTAwNjlDOS4wNTE4NCAxNS41Nzg1IDguOTYyMzUgMTUuMzgxMiA4LjgzMjIxIDE1LjExNjdMNy40MTY1OSAxMi4zMjgySDUuMzI5NzdMNy45MjMwNCAxNi42OTFaIi8+JiN4YTs8L3N2Zz4=" parent="gxo681l_O-IEjd7Bf2fG-1" vertex="1">
          <mxGeometry x="696" y="153.5" width="32" height="33" as="geometry" />
        </mxCell>
        <mxCell id="gxo681l_O-IEjd7Bf2fG-38" value="" style="shape=image;verticalLabelPosition=bottom;verticalAlign=top;imageAspect=0;aspect=fixed;image=data:image/svg+xml,PHN2ZyB4bWxucz0iaHR0cDovL3d3dy53My5vcmcvMjAwMC9zdmciIGZpbGw9Im5vbmUiIHZpZXdCb3g9IjAgMCAzMiAzMyIgaGVpZ2h0PSIzMyIgd2lkdGg9IjMyIj4mI3hhOzxwYXRoIGZpbGw9ImJsYWNrIiBkPSJNMTMgMjIuMDMxMkMxMyAyMS40NzkgMTIuNTUyMyAyMS4wMzEyIDEyIDIxLjAzMTJDMTEuNDQ3NyAyMS4wMzEyIDExIDIxLjQ3OSAxMSAyMi4wMzEyVjI1LjAzMTJDMTEgMjUuNTgzNSAxMS40NDc3IDI2LjAzMTIgMTIgMjYuMDMxMkMxMi41NTIzIDI2LjAzMTIgMTMgMjUuNTgzNSAxMyAyNS4wMzEyVjIyLjAzMTJaTTE2IDE1LjAzMTJDMTYuNTUyMyAxNS4wMzEyIDE3IDE1LjQ3OSAxNyAxNi4wMzEyVjI1LjAzMTJDMTcgMjUuNTgzNSAxNi41NTIzIDI2LjAzMTIgMTYgMjYuMDMxMkMxNS40NDc3IDI2LjAzMTIgMTUgMjUuNTgzNSAxNSAyNS4wMzEyVjE2LjAzMTJDMTUgMTUuNDc5IDE1LjQ0NzcgMTUuMDMxMiAxNiAxNS4wMzEyWk0yMSAxOS4wMzEyQzIxIDE4LjQ3OSAyMC41NTIzIDE4LjAzMTIgMjAgMTguMDMxMkMxOS40NDc3IDE4LjAzMTIgMTkgMTguNDc5IDE5IDE5LjAzMTJWMjUuMDMxMkMxOSAyNS41ODM1IDE5LjQ0NzcgMjYuMDMxMiAyMCAyNi4wMzEyQzIwLjU1MjMgMjYuMDMxMiAyMSAyNS41ODM1IDIxIDI1LjAzMTJWMTkuMDMxMlpNNSA1LjAzMTI1QzUgMy4zNzQ0IDYuMzQzMTUgMi4wMzEyNSA4IDIuMDMxMjVIMTguMTcxNkMxOC45NjcyIDIuMDMxMjUgMTkuNzMwMyAyLjM0NzMyIDIwLjI5MjkgMi45MDk5M0wyNi4xMjEzIDguNzM4MzZDMjYuNjgzOSA5LjMwMDk3IDI3IDEwLjA2NCAyNyAxMC44NTk3VjI3LjAzMTJDMjcgMjguNjg4MSAyNS42NTY5IDMwLjAzMTIgMjQgMzAuMDMxMkg4QzYuMzQzMTUgMzAuMDMxMiA1IDI4LjY4ODEgNSAyNy4wMzEyVjUuMDMxMjVaTTggNC4wMzEyNUM3LjQ0NzcyIDQuMDMxMjUgNyA0LjQ3ODk3IDcgNS4wMzEyNVYyNy4wMzEyQzcgMjcuNTgzNSA3LjQ0NzcyIDI4LjAzMTIgOCAyOC4wMzEySDI0QzI0LjU1MjMgMjguMDMxMiAyNSAyNy41ODM1IDI1IDI3LjAzMTJWMTIuMDMxMkgyMEMxOC4zNDMxIDEyLjAzMTIgMTcgMTAuNjg4MSAxNyA5LjAzMTI1VjQuMDMxMjVIOFpNMjAgMTAuMDMxMkgyNC41ODU4TDE5IDQuNDQ1NDZWOS4wMzEyNUMxOSA5LjU4MzUzIDE5LjQ0NzcgMTAuMDMxMiAyMCAxMC4wMzEyWiIvPiYjeGE7PC9zdmc+" parent="gxo681l_O-IEjd7Bf2fG-1" vertex="1">
          <mxGeometry x="743" y="155" width="32" height="33" as="geometry" />
        </mxCell>
        <mxCell id="gxo681l_O-IEjd7Bf2fG-39" value="Semantic model" style="shape=image;verticalLabelPosition=bottom;verticalAlign=top;imageAspect=0;aspect=fixed;image=data:image/svg+xml,PHN2ZyB4bWxucz0iaHR0cDovL3d3dy53My5vcmcvMjAwMC9zdmciIGZpbGw9Im5vbmUiIHZpZXdCb3g9IjAgMCAzMiAzMyIgaGVpZ2h0PSIzMyIgd2lkdGg9IjMyIj4mI3hhOzxwYXRoIGZpbGw9ImJsYWNrIiBkPSJNOS4zOTM2OSAxMC4yMjE4QzguODg2MDYgMTAuMDA0MiA4LjI5ODE4IDEwLjIzOTQgOC4wODA2MiAxMC43NDdDNy44NjMwNyAxMS4yNTQ3IDguMDk4MjIgMTEuODQyNSA4LjYwNTg1IDEyLjA2MDFMMTQuOTk5OCAxNC44MDAzVjIxLjE0MDlDMTQuOTk5OCAyMS42OTMyIDE1LjQ0NzUgMjIuMTQwOSAxNS45OTk4IDIyLjE0MDlDMTYuNTUyMSAyMi4xNDA5IDE2Ljk5OTggMjEuNjkzMiAxNi45OTk4IDIxLjE0MDlWMTQuODAwM0wyMy4zOTM3IDEyLjA2MDFDMjMuOTAxMyAxMS44NDI1IDI0LjEzNjUgMTEuMjU0NyAyMy45MTg5IDEwLjc0N0MyMy43MDE0IDEwLjIzOTQgMjMuMTEzNSAxMC4wMDQyIDIyLjYwNTkgMTAuMjIxOEwxNS45OTk4IDEzLjA1M0w5LjM5MzY5IDEwLjIyMThaTTE4LjE1MzkgMi44OTgwM0MxNi43Njc1IDIuMzY0OCAxNS4yMzI1IDIuMzY0OCAxMy44NDYxIDIuODk4MDNMMy45MjMwNiA2LjcxNDZDMi43NjQ0OSA3LjE2MDIgMiA4LjI3MzMyIDIgOS41MTQ2M1YyMi43Njc0QzIgMjQuMDA4OCAyLjc2NDQ5IDI1LjEyMTkgMy45MjMwNiAyNS41Njc1TDEzLjg0NjEgMjkuMzg0QzE1LjIzMjUgMjkuOTE3MyAxNi43Njc1IDI5LjkxNzMgMTguMTUzOSAyOS4zODRMMjguMDc2OSAyNS41Njc1QzI5LjIzNTUgMjUuMTIxOSAzMCAyNC4wMDg4IDMwIDIyLjc2NzRWOS41MTQ2M0MzMCA4LjI3MzMyIDI5LjIzNTUgNy4xNjAyIDI4LjA3NjkgNi43MTQ2TDE4LjE1MzkgMi44OTgwM1pNMTQuNTY0MSA0Ljc2NDczQzE1LjQ4ODQgNC40MDkyNCAxNi41MTE2IDQuNDA5MjQgMTcuNDM1OSA0Ljc2NDczTDI3LjM1OSA4LjU4MTI5QzI3Ljc0NTIgOC43Mjk4MiAyOCA5LjEwMDg2IDI4IDkuNTE0NjNWMjIuNzY3NEMyOCAyMy4xODEyIDI3Ljc0NTIgMjMuNTUyMiAyNy4zNTkgMjMuNzAwOEwxNy40MzU5IDI3LjUxNzNDMTYuNTExNiAyNy44NzI4IDE1LjQ4ODQgMjcuODcyOCAxNC41NjQxIDI3LjUxNzNMNC42NDEwMiAyMy43MDA4QzQuMjU0ODMgMjMuNTUyMiA0IDIzLjE4MTIgNCAyMi43Njc0VjkuNTE0NjNDNCA5LjEwMDg2IDQuMjU0ODMgOC43Mjk4MiA0LjY0MTAyIDguNTgxMjlMMTQuNTY0MSA0Ljc2NDczWiIvPiYjeGE7PC9zdmc+" parent="gxo681l_O-IEjd7Bf2fG-1" vertex="1">
          <mxGeometry x="671.82" y="296.53" width="68.36" height="70.5" as="geometry" />
        </mxCell>
        <mxCell id="gxo681l_O-IEjd7Bf2fG-40" value="" style="endArrow=classic;html=1;rounded=0;" parent="gxo681l_O-IEjd7Bf2fG-1" edge="1">
          <mxGeometry width="50" height="50" relative="1" as="geometry">
            <mxPoint x="705.5" y="288" as="sourcePoint" />
            <mxPoint x="705.5" y="208" as="targetPoint" />
          </mxGeometry>
        </mxCell>
        <mxCell id="gxo681l_O-IEjd7Bf2fG-41" value="" style="endArrow=classic;html=1;rounded=0;labelPosition=center;verticalLabelPosition=middle;align=center;verticalAlign=middle;labelBackgroundColor=none;" parent="gxo681l_O-IEjd7Bf2fG-1" edge="1">
          <mxGeometry width="50" height="50" relative="1" as="geometry">
            <mxPoint x="561" y="331.28" as="sourcePoint" />
            <mxPoint x="661" y="331.28" as="targetPoint" />
          </mxGeometry>
        </mxCell>
        <mxCell id="gxo681l_O-IEjd7Bf2fG-42" style="edgeStyle=orthogonalEdgeStyle;rounded=0;orthogonalLoop=1;jettySize=auto;html=1;exitX=0.5;exitY=1;exitDx=0;exitDy=0;" parent="gxo681l_O-IEjd7Bf2fG-1" source="gxo681l_O-IEjd7Bf2fG-6" target="gxo681l_O-IEjd7Bf2fG-6" edge="1">
          <mxGeometry relative="1" as="geometry" />
        </mxCell>
        <mxCell id="gxo681l_O-IEjd7Bf2fG-43" value="Direct lake&lt;br&gt;Import mode" style="text;strokeColor=none;align=center;fillColor=none;html=1;verticalAlign=middle;whiteSpace=wrap;rounded=0;" parent="gxo681l_O-IEjd7Bf2fG-1" vertex="1">
          <mxGeometry x="570" y="333" width="80" height="30" as="geometry" />
        </mxCell>
        <mxCell id="gxo681l_O-IEjd7Bf2fG-44" value="" style="rounded=0;whiteSpace=wrap;html=1;dashed=1;dashPattern=12 12;fillColor=none;" parent="gxo681l_O-IEjd7Bf2fG-1" vertex="1">
          <mxGeometry x="330" y="266" width="440" height="360" as="geometry" />
        </mxCell>
        <mxCell id="gxo681l_O-IEjd7Bf2fG-45" value="Gasido" style="image;sketch=0;aspect=fixed;html=1;points=[];align=center;fontSize=12;image=img/lib/mscae/Azure_Database_for_PostgreSQL_servers.svg;" parent="gxo681l_O-IEjd7Bf2fG-1" vertex="1">
          <mxGeometry x="56.260000000000005" y="246" width="46.4" height="61.05" as="geometry" />
        </mxCell>
        <mxCell id="gxo681l_O-IEjd7Bf2fG-46" value="Risk DB" style="image;sketch=0;aspect=fixed;html=1;points=[];align=center;fontSize=12;image=img/lib/mscae/Azure_Database_for_PostgreSQL_servers.svg;" parent="gxo681l_O-IEjd7Bf2fG-1" vertex="1">
          <mxGeometry x="610.6000000000001" y="542.5" width="30.4" height="40" as="geometry" />
        </mxCell>
        <mxCell id="gxo681l_O-IEjd7Bf2fG-47" value="" style="endArrow=classic;startArrow=classic;html=1;rounded=0;" parent="gxo681l_O-IEjd7Bf2fG-1" edge="1">
          <mxGeometry width="50" height="50" relative="1" as="geometry">
            <mxPoint x="531.42" y="565.5" as="sourcePoint" />
            <mxPoint x="608.6" y="565.5" as="targetPoint" />
          </mxGeometry>
        </mxCell>
        <mxCell id="gxo681l_O-IEjd7Bf2fG-48" value="" style="rounded=0;whiteSpace=wrap;html=1;fillColor=#fff2cc;strokeColor=#d6b656;rotation=0;" parent="gxo681l_O-IEjd7Bf2fG-1" vertex="1">
          <mxGeometry x="200.91" y="246" width="100" height="200" as="geometry" />
        </mxCell>
        <mxCell id="gxo681l_O-IEjd7Bf2fG-49" value="" style="endArrow=classic;html=1;rounded=0;" parent="gxo681l_O-IEjd7Bf2fG-1" edge="1">
          <mxGeometry width="50" height="50" relative="1" as="geometry">
            <mxPoint x="109" y="331.28" as="sourcePoint" />
            <mxPoint x="209" y="331.28" as="targetPoint" />
          </mxGeometry>
        </mxCell>
        <mxCell id="gxo681l_O-IEjd7Bf2fG-50" value="Bronze" style="shape=image;verticalLabelPosition=bottom;verticalAlign=top;imageAspect=0;aspect=fixed;image=data:image/svg+xml,PHN2ZyB4bWxucz0iaHR0cDovL3d3dy53My5vcmcvMjAwMC9zdmciIGZpbGw9Im5vbmUiIHZpZXdCb3g9IjAgMCAzMiAzMyIgaGVpZ2h0PSIzMyIgd2lkdGg9IjMyIj4mI3hhOzxwYXRoIGZpbGw9ImJsYWNrIiBkPSJNMTIuNjI2IDQuMzkwMDJDMTMuMzk3IDMuNjYxNzQgMTQuNjAzIDMuNjYxNzQgMTUuMzc0IDQuMzkwMDJMMjUuMDYxIDEzLjU0MDNDMjUuNjYwNCAxNC4xMDY0IDI2IDE0Ljg5NDEgMjYgMTUuNzE4MlYxOC42MDYyQzI1Ljc5OSAxOC40MjY0IDI1LjU3NCAxOC4yNzQgMjUuMzMwNyAxOC4xNTM4QzI0LjkxNyAxNy45NDkyIDI0LjQ2MTUgMTcuODQzMiAyNCAxNy44NDM4VjE1LjcxODJDMjQgMTUuNDQzNSAyMy44ODY4IDE1LjE4MSAyMy42ODcgMTQuOTkyMkwxNCA1Ljg0MTk4TDQuMzEyOTkgMTQuOTkyMkM0LjExMzIgMTUuMTgxIDQgMTUuNDQzNSA0IDE1LjcxODJWMjYuODQ2NkM0IDI3LjM5ODMgNC40NDc3MiAyNy44NDU2IDUgMjcuODQ1Nkg4Ljc2MjNDOC4yNzI2NyAyOC4zOTM5IDggMjkuMTA0OCA4IDI5Ljg0MzhMNSAyOS44NDM4QzMuMzQzMTQgMjkuODQzOCAyIDI4LjUwMTkgMiAyNi44NDY2VjE1LjcxODJDMiAxNC44OTQxIDIuMzM5NjEgMTQuMTA2NCAyLjkzODk2IDEzLjU0MDNMMTIuNjI2IDQuMzkwMDJaIi8+JiN4YTs8cGF0aCBmaWxsPSJibGFjayIgZD0iTTI5IDIyLjg0MzdDMjguMzk3OSAyMi44NzczIDI3Ljc5NTIgMjIuNzg3NiAyNy4yMjg5IDIyLjU4QzI2LjY2MjcgMjIuMzcyNSAyNi4xNDQ4IDIyLjA1MTUgMjUuNzA3IDIxLjYzNjdDMjUuNDY1OCAyMS4zOTY0IDI1LjI1OTEgMjEuMTIzOCAyNS4wOTMgMjAuODI2N0MyNS4wNTI2IDIwLjc1MDYgMjUuMDE2MyAyMC42NzI1IDI0Ljk4NCAyMC41OTI3QzI0Ljk0OTMgMjAuNTA1OSAyNC45MDkyIDIwLjQyMTQgMjQuODY0IDIwLjMzOTdDMjQuODQzNyAyMC4zMDUgMjQuODIxNCAyMC4yNzE2IDI0Ljc5NyAyMC4yMzk3QzI0LjY3MTkgMjAuMDc1MyAyNC40OTkgMTkuOTUzNyAyNC4zMDIxIDE5Ljg5MTZDMjQuMTA1MSAxOS44Mjk1IDIzLjg5MzcgMTkuODI5OCAyMy42OTcgMTkuODkyN0gyMy42ODdDMjMuNDU2NiAxOS45NzA5IDIzLjI2MTggMjAuMTI5MiAyMy4xMzggMjAuMzM4N0MyMy4wODYxIDIwLjQzNTMgMjMuMDQxMyAyMC41MzU1IDIzLjAwNCAyMC42Mzg3TDIyLjk5MzUgMjAuNjY0OEMyMi45NjYxIDIwLjczMzIgMjIuOTM4NiAyMC44MDE5IDIyLjkwNCAyMC44NjY3QzIyLjc1NDEgMjEuMTY2IDIyLjU3MDkgMjEuNDQ3NCAyMi4zNTggMjEuNzA1N0MyMi4wNzY1IDIyLjA2MTEgMjEuNzE4MiAyMi4zNDgyIDIxLjMxMDEgMjIuNTQ1NUMyMC45MDE5IDIyLjc0MjkgMjAuNDU0NCAyMi44NDU0IDIwLjAwMSAyMi44NDU0QzE5LjU0NzYgMjIuODQ1NCAxOS4xMDAxIDIyLjc0MjkgMTguNjkxOSAyMi41NDU1QzE4LjI4MzggMjIuMzQ4MiAxNy45MjU1IDIyLjA2MTEgMTcuNjQ0IDIxLjcwNTdDMTcuNDMxMSAyMS40NDc0IDE3LjI0NzkgMjEuMTY2IDE3LjA5OCAyMC44NjY3QzE3LjA3MTEgMjAuODEzNiAxNy4wNDc5IDIwLjc1NzkgMTcuMDI0NiAyMC43MDE5QzE3LjAxNTggMjAuNjgwOCAxNy4wMDcgMjAuNjU5NyAxNi45OTggMjAuNjM4N0MxNi45NjA3IDIwLjUzNTUgMTYuOTE1OSAyMC40MzUzIDE2Ljg2NCAyMC4zMzg3QzE2Ljc0MDIgMjAuMTI5MiAxNi41NDU0IDE5Ljk3MDkgMTYuMzE1IDE5Ljg5MjdIMTYuMzA1QzE2LjEwODMgMTkuODI5OCAxNS44OTY5IDE5LjgyOTUgMTUuNjk5OSAxOS44OTE2QzE1LjUwMyAxOS45NTM3IDE1LjMzMDEgMjAuMDc1MyAxNS4yMDUgMjAuMjM5N0MxNS4xODA2IDIwLjI3MTYgMTUuMTU4MyAyMC4zMDUgMTUuMTM4IDIwLjMzOTdDMTUuMDkyOCAyMC40MjE0IDE1LjA1MjcgMjAuNTA1OSAxNS4wMTggMjAuNTkyN0MxNC45ODU3IDIwLjY3MjUgMTQuOTQ5NCAyMC43NTA2IDE0LjkwOSAyMC44MjY3QzE0Ljc0MjkgMjEuMTIzOCAxNC41MzYyIDIxLjM5NjQgMTQuMjk1IDIxLjYzNjdDMTMuODU3IDIyLjA1MTcgMTMuMzM4NyAyMi4zNzI5IDEyLjc3MjEgMjIuNTgwNEMxMi4yMDU1IDIyLjc4OCAxMS42MDI1IDIyLjg3NzYgMTEgMjIuODQzN0MxMC43MzQ4IDIyLjg0MzcgMTAuNDgwNCAyMi45NDkgMTAuMjkyOSAyMy4xMzY2QzEwLjEwNTQgMjMuMzI0MSAxMCAyMy41Nzg1IDEwIDIzLjg0MzdDMTAgMjQuMTA4OSAxMC4xMDU0IDI0LjM2MzIgMTAuMjkyOSAyNC41NTA4QzEwLjQ4MDQgMjQuNzM4MyAxMC43MzQ4IDI0Ljg0MzcgMTEgMjQuODQzN0MxMS44NjUgMjQuODc3OSAxMi43Mjc5IDI0LjczNjcgMTMuNTM2OSAyNC40Mjg2QzE0LjM0NTggMjQuMTIwNCAxNS4wODQgMjMuNjUxNyAxNS43MDcgMjMuMDUwN0MxNS43OTQgMjIuOTYzNyAxNS44NzYgMjIuODc2NyAxNS45NTIgMjIuNzg5N0MxNi4wMDEgMjIuODU0NyAxNi4wNTIgMjIuOTE4NyAxNi4xMDcgMjIuOTgzN0MxNi41NzU2IDIzLjU2NTEgMTcuMTY4NiAyNC4wMzQyIDE3Ljg0MjIgMjQuMzU2NUMxOC41MTU5IDI0LjY3ODggMTkuMjUzMiAyNC44NDYxIDIwIDI0Ljg0NjFDMjAuNzQ2OCAyNC44NDYxIDIxLjQ4NDEgMjQuNjc4OCAyMi4xNTc4IDI0LjM1NjVDMjIuODMxNCAyNC4wMzQyIDIzLjQyNDQgMjMuNTY1MSAyMy44OTMgMjIuOTgzN0MyMy45NDcgMjIuOTE4NyAyMy45OTkgMjIuODU0NyAyNC4wNDggMjIuNzg5N0MyNC4xMjQgMjIuODc2NyAyNC4yMDYgMjIuOTYzNyAyNC4yOTMgMjMuMDUwN0MyNC45MTYgMjMuNjUxNyAyNS42NTQyIDI0LjEyMDQgMjYuNDYzMSAyNC40Mjg2QzI3LjI3MjEgMjQuNzM2NyAyOC4xMzUgMjQuODc3OSAyOSAyNC44NDM3QzI5LjI2NTIgMjQuODQzNyAyOS41MTk2IDI0LjczODMgMjkuNzA3MSAyNC41NTA4QzI5Ljg5NDYgMjQuMzYzMiAzMCAyNC4xMDg5IDMwIDIzLjg0MzdDMzAgMjMuNTc4NSAyOS44OTQ2IDIzLjMyNDEgMjkuNzA3MSAyMy4xMzY2QzI5LjUxOTYgMjIuOTQ5IDI5LjI2NTIgMjIuODQzNyAyOSAyMi44NDM3WiIvPiYjeGE7PHBhdGggZmlsbD0iYmxhY2siIGQ9Ik0yOSAyOC44NDM3QzI4LjM5NzkgMjguODc3MyAyNy43OTUyIDI4Ljc4NzYgMjcuMjI4OSAyOC41OEMyNi42NjI3IDI4LjM3MjUgMjYuMTQ0OCAyOC4wNTE1IDI1LjcwNyAyNy42MzY3QzI1LjQ2NTggMjcuMzk2NCAyNS4yNTkxIDI3LjEyMzggMjUuMDkzIDI2LjgyNjdDMjUuMDUyNiAyNi43NTA2IDI1LjAxNjMgMjYuNjcyNSAyNC45ODQgMjYuNTkyN0MyNC45NDkzIDI2LjUwNTkgMjQuOTA5MiAyNi40MjE0IDI0Ljg2NCAyNi4zMzk3QzI0Ljg0MzcgMjYuMzA1IDI0LjgyMTQgMjYuMjcxNiAyNC43OTcgMjYuMjM5N0MyNC42NzE5IDI2LjA3NTMgMjQuNDk5IDI1Ljk1MzcgMjQuMzAyMSAyNS44OTE2QzI0LjEwNTEgMjUuODI5NSAyMy44OTM3IDI1LjgyOTggMjMuNjk3IDI1Ljg5MjdIMjMuNjg3QzIzLjQ1NjYgMjUuOTcwOSAyMy4yNjE4IDI2LjEyOTIgMjMuMTM4IDI2LjMzODdDMjMuMDg2MSAyNi40MzUzIDIzLjA0MTMgMjYuNTM1NSAyMy4wMDQgMjYuNjM4N0wyMi45OTM1IDI2LjY2NDhDMjIuOTY2MSAyNi43MzMyIDIyLjkzODYgMjYuODAxOSAyMi45MDQgMjYuODY2N0MyMi43NTQxIDI3LjE2NiAyMi41NzA5IDI3LjQ0NzQgMjIuMzU4IDI3LjcwNTdDMjIuMDc2NSAyOC4wNjExIDIxLjcxODIgMjguMzQ4MiAyMS4zMTAxIDI4LjU0NTVDMjAuOTAxOSAyOC43NDI5IDIwLjQ1NDQgMjguODQ1NCAyMC4wMDEgMjguODQ1NEMxOS41NDc2IDI4Ljg0NTQgMTkuMTAwMSAyOC43NDI5IDE4LjY5MTkgMjguNTQ1NUMxOC4yODM4IDI4LjM0ODIgMTcuOTI1NSAyOC4wNjExIDE3LjY0NCAyNy43MDU3QzE3LjQzMTEgMjcuNDQ3NCAxNy4yNDc5IDI3LjE2NiAxNy4wOTggMjYuODY2N0MxNy4wNzExIDI2LjgxMzYgMTcuMDQ3OSAyNi43NTc5IDE3LjAyNDYgMjYuNzAxOUMxNy4wMTU4IDI2LjY4MDggMTcuMDA3IDI2LjY1OTcgMTYuOTk4IDI2LjYzODdDMTYuOTYwNyAyNi41MzU1IDE2LjkxNTkgMjYuNDM1MyAxNi44NjQgMjYuMzM4N0MxNi43NDAyIDI2LjEyOTIgMTYuNTQ1NCAyNS45NzA5IDE2LjMxNSAyNS44OTI3SDE2LjMwNUMxNi4xMDgzIDI1LjgyOTggMTUuODk2OSAyNS44Mjk1IDE1LjY5OTkgMjUuODkxNkMxNS41MDMgMjUuOTUzNyAxNS4zMzAxIDI2LjA3NTMgMTUuMjA1IDI2LjIzOTdDMTUuMTgwNiAyNi4yNzE2IDE1LjE1ODMgMjYuMzA1IDE1LjEzOCAyNi4zMzk3QzE1LjA5MjggMjYuNDIxNCAxNS4wNTI3IDI2LjUwNTkgMTUuMDE4IDI2LjU5MjdDMTQuOTg1NyAyNi42NzI1IDE0Ljk0OTQgMjYuNzUwNiAxNC45MDkgMjYuODI2N0MxNC43NDI5IDI3LjEyMzggMTQuNTM2MiAyNy4zOTY0IDE0LjI5NSAyNy42MzY3QzEzLjg1NyAyOC4wNTE3IDEzLjMzODcgMjguMzcyOSAxMi43NzIxIDI4LjU4MDRDMTIuMjA1NSAyOC43ODggMTEuNjAyNSAyOC44Nzc2IDExIDI4Ljg0MzdDMTAuNzM0OCAyOC44NDM3IDEwLjQ4MDQgMjguOTQ5IDEwLjI5MjkgMjkuMTM2NkMxMC4xMDU0IDI5LjMyNDEgMTAgMjkuNTc4NSAxMCAyOS44NDM3QzEwIDMwLjEwODkgMTAuMTA1NCAzMC4zNjMyIDEwLjI5MjkgMzAuNTUwOEMxMC40ODA0IDMwLjczODMgMTAuNzM0OCAzMC44NDM3IDExIDMwLjg0MzdDMTEuODY1IDMwLjg3NzkgMTIuNzI3OSAzMC43MzY3IDEzLjUzNjkgMzAuNDI4NkMxNC4zNDU4IDMwLjEyMDQgMTUuMDg0IDI5LjY1MTcgMTUuNzA3IDI5LjA1MDdDMTUuNzk0IDI4Ljk2MzcgMTUuODc2IDI4Ljg3NjcgMTUuOTUyIDI4Ljc4OTdDMTYuMDAxIDI4Ljg1NDcgMTYuMDUyIDI4LjkxODcgMTYuMTA3IDI4Ljk4MzdDMTYuNTc1NiAyOS41NjUxIDE3LjE2ODYgMzAuMDM0MiAxNy44NDIyIDMwLjM1NjVDMTguNTE1OSAzMC42Nzg4IDE5LjI1MzIgMzAuODQ2MSAyMCAzMC44NDYxQzIwLjc0NjggMzAuODQ2MSAyMS40ODQxIDMwLjY3ODggMjIuMTU3OCAzMC4zNTY1QzIyLjgzMTQgMzAuMDM0MiAyMy40MjQ0IDI5LjU2NTEgMjMuODkzIDI4Ljk4MzdDMjMuOTQ3IDI4LjkxODcgMjMuOTk5IDI4Ljg1NDcgMjQuMDQ4IDI4Ljc4OTdDMjQuMTI0IDI4Ljg3NjcgMjQuMjA2IDI4Ljk2MzcgMjQuMjkzIDI5LjA1MDdDMjQuOTE2IDI5LjY1MTcgMjUuNjU0MiAzMC4xMjA0IDI2LjQ2MzEgMzAuNDI4NkMyNy4yNzIxIDMwLjczNjcgMjguMTM1IDMwLjg3NzkgMjkgMzAuODQzN0MyOS4yNjUyIDMwLjg0MzcgMjkuNTE5NiAzMC43MzgzIDI5LjcwNzEgMzAuNTUwOEMyOS44OTQ2IDMwLjM2MzIgMzAgMzAuMTA4OSAzMCAyOS44NDM3QzMwIDI5LjU3ODUgMjkuODk0NiAyOS4zMjQxIDI5LjcwNzEgMjkuMTM2NkMyOS41MTk2IDI4Ljk0OSAyOS4yNjUyIDI4Ljg0MzcgMjkgMjguODQzN1oiLz4mI3hhOzwvc3ZnPg==" parent="gxo681l_O-IEjd7Bf2fG-1" vertex="1">
          <mxGeometry x="217.00000000000006" y="292.97" width="71.82" height="74.06" as="geometry" />
        </mxCell>
        <mxCell id="gxo681l_O-IEjd7Bf2fG-51" value="" style="endArrow=classic;html=1;rounded=0;" parent="gxo681l_O-IEjd7Bf2fG-1" edge="1">
          <mxGeometry width="50" height="50" relative="1" as="geometry">
            <mxPoint x="282.46" y="305" as="sourcePoint" />
            <mxPoint x="311.55" y="175" as="targetPoint" />
          </mxGeometry>
        </mxCell>
        <mxCell id="gxo681l_O-IEjd7Bf2fG-52" value="" style="endArrow=classic;html=1;rounded=0;" parent="gxo681l_O-IEjd7Bf2fG-1" edge="1">
          <mxGeometry width="50" height="50" relative="1" as="geometry">
            <mxPoint x="660" y="367.03" as="sourcePoint" />
            <mxPoint x="560" y="537.03" as="targetPoint" />
          </mxGeometry>
        </mxCell>
        <mxCell id="gxo681l_O-IEjd7Bf2fG-53" value="Onelake" style="shape=image;verticalLabelPosition=middle;verticalAlign=middle;imageAspect=0;aspect=fixed;image=data:image/svg+xml,PHN2ZyB4bWxucz0iaHR0cDovL3d3dy53My5vcmcvMjAwMC9zdmciIHZpZXdCb3g9IjAgMCA0OCA0OSIgZmlsbD0iY3VycmVudENvbG9yIiBoZWlnaHQ9IjQ5IiB3aWR0aD0iNDgiPiYjeGE7ICA8bWFzayBzdHlsZT0ibWFzay10eXBlOmx1bWluYW5jZSIgbWFza1VuaXRzPSJ1c2VyU3BhY2VPblVzZSIgeT0iNCIgeD0iNCIgaGVpZ2h0PSI0MSIgd2lkdGg9IjQwIiBpZD0iYSI+JiN4YTsgICAgPHBhdGggZD0iTTQzLjQ4MSA0LjVINC41MnYzOS45ODVoMzguOTZWNC41WiIgZmlsbD0iI2ZmZiIvPiYjeGE7ICA8L21hc2s+JiN4YTsgIDxnIG1hc2s9InVybCgjYSkiPiYjeGE7ICAgIDxwYXRoIGQ9Ik0yMi4yMSAzMy4wNDFjNS40ODYtMy4xNjggNy4yOTMtMTAuMzEyIDQuMDMzLTE1Ljk1Ny0zLjI2LTUuNjQ2LTEwLjM1LTcuNjU0LTE1LjgzNi00LjQ4NkM0LjkyIDE1Ljc2NiAzLjExNCAyMi45MSA2LjM3MyAyOC41NTZjMy4yNiA1LjY0NSAxMC4zNSA3LjY1MyAxNS44MzYgNC40ODVaIiBmaWxsPSJ1cmwoI2IpIi8+JiN4YTsgICAgPHBhdGggZD0iTTI5LjM3MSAxNy4yMTVjMi44NDktMi44NSAyLjc4LTcuNTM2LS4xNTItMTAuNDY4QzI2LjI4NyAzLjgxNiAyMS42IDMuNzUgMTguNzUxIDYuNnMtMi43OCA3LjUzNy4xNTIgMTAuNDY4YzIuOTMzIDIuOTMyIDcuNjIgMi45OTggMTAuNDY4LjE0OFoiIGZpbGw9InVybCgjYykiLz4mI3hhOyAgICA8cGF0aCBkPSJNMjYuMjk5IDQzLjcyYzkuNDg3IDAgMTcuMTc4LTcuNjkxIDE3LjE3OC0xNy4xNzlTMzUuNzg3IDkuMzYyIDI2LjMgOS4zNjIgOS4xMiAxNy4wNTMgOS4xMiAyNi41NDEgMTYuODExIDQzLjcyIDI2LjMgNDMuNzJaIiBmaWxsPSJ1cmwoI2QpIi8+JiN4YTsgICAgPHBhdGggY2xpcC1ydWxlPSJldmVub2RkIiBkPSJNMTkuNTY5IDUuODg3Yy0xMC4wODUgNi4yMy0xMy42MSAxOS4zNS03LjgxNSAyOS44NDUuMzkuNzEuODE1IDEuMzkyIDEuMjc0IDIuMDM5bC40NS4wNjkgOS45NjYgMy4zMjcgOS40NjgtNi4zNDNjLTEuNTg1LjA1LTguMTgtMy42OTMtMTIuNDktMTEuODcyLTUuNC0xMC4yNDgtMy4xNzMtMTQuOTgyLS44NDMtMTcuMDY1aC0uMDFaIiBmaWxsLXJ1bGU9ImV2ZW5vZGQiIGZpbGw9InVybCgjZSkiLz4mI3hhOyAgICA8cGF0aCBjbGlwLXJ1bGU9ImV2ZW5vZGQiIGQ9Ik0xOS41NjkgNS44ODdjLTEwLjA4NSA2LjIzLTEzLjYxIDE5LjM1LTcuODE1IDI5Ljg0NS4zOS43MS44MTUgMS4zOTIgMS4yNzQgMi4wMzlsLjQ1LjA2OSA5Ljk2NiAzLjMyNyA5LjQ2OC02LjM0M2MtMS41ODUuMDUtOC4xOC0zLjY5My0xMi40OS0xMS44NzItNS40LTEwLjI0OC0zLjE3My0xNC45ODItLjg0My0xNy4wNjVoLS4wMVoiIGZpbGwtcnVsZT0iZXZlbm9kZCIgZmlsbC1vcGFjaXR5PSIuMiIgZmlsbD0idXJsKCNmKSIvPiYjeGE7ICAgIDxwYXRoIGNsaXAtcnVsZT0iZXZlbm9kZCIgZD0iTTM5LjM2NCAzNy42OTdhMTcuMjQgMTcuMjQgMCAwIDAgMy42MzgtNy4xMDljLTEuNzA4LTQuODc3LTguNTgtNi4yNDktMTIuMzQtMi40MzMtMi44ODkgMi45MjctNS44OSA1LjM4Ni04LjE0NiA1LjgyNUM5LjQ2OSAzNi41NDIgMy45MTkgMjUuNzg3IDQuODczIDIwLjg0YTE5LjgxIDE5LjgxIDAgMCAwIC4wNSA3LjczYzIuMTk2IDEwLjc2IDEyLjY5NiAxNy43IDIzLjQ1NyAxNS41MDVhMTkuODE0IDE5LjgxNCAwIDAgMCA4LjcyNy00LjE4MXMuMDQtLjAzLjA1NC0uMDQ1YTE5Ljc2IDE5Ljc2IDAgMCAwIDIuMjAyLTIuMTU3di4wMDVaIiBmaWxsLXJ1bGU9ImV2ZW5vZGQiIGZpbGw9InVybCgjZykiLz4mI3hhOyAgPC9nPiYjeGE7ICA8ZGVmcz4mI3hhOyAgICA8cmFkaWFsR3JhZGllbnQgZ3JhZGllbnRVbml0cz0idXNlclNwYWNlT25Vc2UiIGdyYWRpZW50VHJhbnNmb3JtPSJyb3RhdGUoMTM0LjgzIDE4LjExMyA4LjI5NCkgc2NhbGUoMjUuODkyNSAzMy40MDMzKSIgcj0iMSIgY3k9IjAiIGN4PSIwIiBpZD0iZCI+JiN4YTsgICAgICA8c3RvcCBzdG9wLWNvbG9yPSIjMDI4RkRDIiBvZmZzZXQ9Ii4zOSIvPiYjeGE7ICAgICAgPHN0b3Agc3RvcC1jb2xvcj0iIzAwNzhENCIgb2Zmc2V0PSIuNTkiLz4mI3hhOyAgICAgIDxzdG9wIHN0b3AtY29sb3I9IiMxQTUwOEIiIG9mZnNldD0iMSIvPiYjeGE7ICAgIDwvcmFkaWFsR3JhZGllbnQ+JiN4YTsgICAgPHJhZGlhbEdyYWRpZW50IGdyYWRpZW50VW5pdHM9InVzZXJTcGFjZU9uVXNlIiBncmFkaWVudFRyYW5zZm9ybT0icm90YXRlKDEzOS40NCAxMi41NCAxNC4xNDUpIHNjYWxlKDIzLjMwMDYgMjguNzQ5NSkiIHI9IjEiIGN5PSIwIiBjeD0iMCIgaWQ9ImUiPiYjeGE7ICAgICAgPHN0b3Agc3RvcC1jb2xvcj0iIzQwRDlGQSIgb2Zmc2V0PSIuNDYiLz4mI3hhOyAgICAgIDxzdG9wIHN0b3AtY29sb3I9IiMwMDk1RTYiIG9mZnNldD0iLjkiLz4mI3hhOyAgICA8L3JhZGlhbEdyYWRpZW50PiYjeGE7ICAgIDxyYWRpYWxHcmFkaWVudCBncmFkaWVudFVuaXRzPSJ1c2VyU3BhY2VPblVzZSIgZ3JhZGllbnRUcmFuc2Zvcm09Im1hdHJpeCgtMi42NTMwOCAyNC41ODE4NCAtMTcuNDU4MzEgLTEuODg0MjUgMTguNDA4IDExLjc2NCkiIHI9IjEiIGN5PSIwIiBjeD0iMCIgaWQ9ImYiPiYjeGE7ICAgICAgPHN0b3Agc3RvcC1vcGFjaXR5PSIwIiBvZmZzZXQ9Ii43NyIvPiYjeGE7ICAgICAgPHN0b3Agb2Zmc2V0PSIxIi8+JiN4YTsgICAgPC9yYWRpYWxHcmFkaWVudD4mI3hhOyAgICA8cmFkaWFsR3JhZGllbnQgZ3JhZGllbnRVbml0cz0idXNlclNwYWNlT25Vc2UiIGdyYWRpZW50VHJhbnNmb3JtPSJyb3RhdGUoODUuOTcgLTEuMDExIDMxLjIwOSkgc2NhbGUoMzguNDc0OSA3MC4xNTc4KSIgcj0iMSIgY3k9IjAiIGN4PSIwIiBpZD0iZyI+JiN4YTsgICAgICA8c3RvcCBzdG9wLWNvbG9yPSIjQkRGNUZGIiBvZmZzZXQ9Ii4xIi8+JiN4YTsgICAgICA8c3RvcCBzdG9wLWNvbG9yPSIjNDBEOUZBIiBvZmZzZXQ9Ii40NyIvPiYjeGE7ICAgIDwvcmFkaWFsR3JhZGllbnQ+JiN4YTsgICAgPGxpbmVhckdyYWRpZW50IGdyYWRpZW50VW5pdHM9InVzZXJTcGFjZU9uVXNlIiB5Mj0iMjUuNTU3IiB5MT0iMTcuNDczIiB4Mj0iNC40NDgiIHgxPSIzOS41MSIgaWQ9ImIiPiYjeGE7ICAgICAgPHN0b3Agc3RvcC1jb2xvcj0iIzAyOEZEQyIgb2Zmc2V0PSIuMiIvPiYjeGE7ICAgICAgPHN0b3Agc3RvcC1jb2xvcj0iIzAwNzhENCIgb2Zmc2V0PSIuNTEiLz4mI3hhOyAgICAgIDxzdG9wIHN0b3AtY29sb3I9IiMwQjMxNUIiIG9mZnNldD0iMSIvPiYjeGE7ICAgIDwvbGluZWFyR3JhZGllbnQ+JiN4YTsgICAgPGxpbmVhckdyYWRpZW50IGdyYWRpZW50VW5pdHM9InVzZXJTcGFjZU9uVXNlIiB5Mj0iNy4xMTIiIHkxPSIyOC4zNDEiIHgyPSIxOC44MzEiIHgxPSI0MS45OTUiIGlkPSJjIj4mI3hhOyAgICAgIDxzdG9wIHN0b3AtY29sb3I9IiMwMjhGREMiIG9mZnNldD0iLjA0Ii8+JiN4YTsgICAgICA8c3RvcCBzdG9wLWNvbG9yPSIjMDA3OEQ0IiBvZmZzZXQ9Ii40NiIvPiYjeGE7ICAgICAgPHN0b3Agc3RvcC1jb2xvcj0iIzBCMzE1QiIgb2Zmc2V0PSIxIi8+JiN4YTsgICAgPC9saW5lYXJHcmFkaWVudD4mI3hhOyAgPC9kZWZzPiYjeGE7PC9zdmc+;labelPosition=right;align=left;" parent="gxo681l_O-IEjd7Bf2fG-1" vertex="1">
          <mxGeometry x="300.40999999999997" y="411" width="56.82" height="58" as="geometry" />
        </mxCell>
        <mxCell id="gxo681l_O-IEjd7Bf2fG-54" value="&lt;div&gt;Databricks&lt;br&gt;&lt;/div&gt;" style="image;aspect=fixed;html=1;points=[];align=left;fontSize=12;image=img/lib/azure2/analytics/Azure_Databricks.svg;labelPosition=right;verticalLabelPosition=middle;verticalAlign=middle;labelBackgroundColor=none;" parent="gxo681l_O-IEjd7Bf2fG-1" vertex="1">
          <mxGeometry x="187.82000000000002" y="411" width="46.18" height="50" as="geometry" />
        </mxCell>
      </root>
    </mxGraphModel>
  </diagram>
  <diagram id="PIn3Lo5pDZvpryiAzimN" name="Enwironments">
    <mxGraphModel dx="1839" dy="2144" grid="1" gridSize="10" guides="1" tooltips="1" connect="1" arrows="1" fold="1" page="1" pageScale="1" pageWidth="850" pageHeight="1100" math="0" shadow="0">
      <root>
        <mxCell id="0" />
        <mxCell id="1" parent="0" />
        <mxCell id="I4Tm8hC2iMa7jTndKI4s-1" value="" style="rounded=0;whiteSpace=wrap;html=1;" parent="1" vertex="1">
          <mxGeometry x="2" y="379" width="200" height="200" as="geometry" />
        </mxCell>
        <mxCell id="_gIUkZP-d5PhOVjkKTWp-1" value="Developmnet" style="text;strokeColor=none;align=left;fillColor=none;html=1;verticalAlign=middle;whiteSpace=wrap;rounded=0;fontSize=17;fontStyle=1" parent="1" vertex="1">
          <mxGeometry x="2" y="379" width="126" height="30" as="geometry" />
        </mxCell>
        <mxCell id="_gIUkZP-d5PhOVjkKTWp-2" value="" style="shape=flexArrow;endArrow=classic;html=1;rounded=0;" parent="1" edge="1">
          <mxGeometry width="50" height="50" relative="1" as="geometry">
            <mxPoint x="97" y="669" as="sourcePoint" />
            <mxPoint x="97" y="609" as="targetPoint" />
          </mxGeometry>
        </mxCell>
        <mxCell id="_gIUkZP-d5PhOVjkKTWp-3" value="&lt;div style=&quot;text-align: left;&quot;&gt;&lt;span style=&quot;text-align: center;&quot;&gt;- ETL development&lt;/span&gt;&lt;span style=&quot;background-color: initial;&quot;&gt;&lt;/span&gt;&lt;/div&gt;&lt;div style=&quot;text-align: left;&quot;&gt;&lt;span style=&quot;background-color: initial;&quot;&gt;- database model&lt;/span&gt;&lt;/div&gt;&lt;div align=&quot;left&quot;&gt;- test data load&lt;br&gt;&lt;/div&gt;&lt;div align=&quot;left&quot;&gt;- on demand load from&lt;br&gt;source systems&lt;/div&gt;" style="text;html=1;align=center;verticalAlign=middle;resizable=0;points=[];autosize=1;strokeColor=none;fillColor=none;" parent="1" vertex="1">
          <mxGeometry x="1" y="402" width="140" height="90" as="geometry" />
        </mxCell>
        <mxCell id="_gIUkZP-d5PhOVjkKTWp-4" value="&lt;div align=&quot;left&quot;&gt;&lt;b&gt;&lt;font style=&quot;font-size: 18px;&quot;&gt;Data engineers&lt;/font&gt;&lt;/b&gt;&lt;/div&gt;" style="text;html=1;align=left;verticalAlign=middle;resizable=0;points=[];autosize=1;strokeColor=none;fillColor=none;" parent="1" vertex="1">
          <mxGeometry x="27" y="679" width="150" height="40" as="geometry" />
        </mxCell>
        <mxCell id="_gIUkZP-d5PhOVjkKTWp-5" value="" style="rounded=0;whiteSpace=wrap;html=1;" parent="1" vertex="1">
          <mxGeometry x="350" y="80" width="200" height="200" as="geometry" />
        </mxCell>
        <mxCell id="_gIUkZP-d5PhOVjkKTWp-6" value="Test" style="text;strokeColor=none;align=left;fillColor=none;html=1;verticalAlign=middle;whiteSpace=wrap;rounded=0;fontSize=17;fontStyle=1" parent="1" vertex="1">
          <mxGeometry x="350" y="80" width="126" height="30" as="geometry" />
        </mxCell>
        <mxCell id="_gIUkZP-d5PhOVjkKTWp-7" value="" style="shape=flexArrow;endArrow=classic;html=1;rounded=0;" parent="1" edge="1">
          <mxGeometry width="50" height="50" relative="1" as="geometry">
            <mxPoint x="450" y="370" as="sourcePoint" />
            <mxPoint x="450" y="310" as="targetPoint" />
          </mxGeometry>
        </mxCell>
        <mxCell id="_gIUkZP-d5PhOVjkKTWp-8" value="&lt;div align=&quot;left&quot;&gt;- data quality testing&lt;/div&gt;&lt;div align=&quot;left&quot;&gt;- performance testing&lt;br&gt;&lt;/div&gt;&lt;div align=&quot;left&quot;&gt;- semantic model development&lt;br&gt;&lt;/div&gt;&lt;div align=&quot;left&quot;&gt;- PowerBI reports development&lt;/div&gt;&lt;div align=&quot;left&quot;&gt;- production data&lt;br&gt;&lt;/div&gt;&lt;div align=&quot;left&quot;&gt;- daily load from source systems&lt;/div&gt;" style="text;html=1;align=center;verticalAlign=middle;resizable=0;points=[];autosize=1;strokeColor=none;fillColor=none;" parent="1" vertex="1">
          <mxGeometry x="342" y="105" width="200" height="100" as="geometry" />
        </mxCell>
        <mxCell id="_gIUkZP-d5PhOVjkKTWp-9" value="&lt;b&gt;&lt;font style=&quot;font-size: 18px;&quot;&gt;BI developers&lt;br&gt;BU testers&lt;br&gt;&lt;/font&gt;&lt;/b&gt;" style="text;html=1;align=left;verticalAlign=middle;resizable=0;points=[];autosize=1;strokeColor=none;fillColor=none;" parent="1" vertex="1">
          <mxGeometry x="380" y="370" width="140" height="60" as="geometry" />
        </mxCell>
        <mxCell id="_gIUkZP-d5PhOVjkKTWp-10" value="" style="rounded=0;whiteSpace=wrap;html=1;" parent="1" vertex="1">
          <mxGeometry x="700" y="379" width="200" height="200" as="geometry" />
        </mxCell>
        <mxCell id="_gIUkZP-d5PhOVjkKTWp-11" value="Production" style="text;strokeColor=none;align=left;fillColor=none;html=1;verticalAlign=middle;whiteSpace=wrap;rounded=0;fontSize=17;fontStyle=1" parent="1" vertex="1">
          <mxGeometry x="700" y="379" width="126" height="30" as="geometry" />
        </mxCell>
        <mxCell id="_gIUkZP-d5PhOVjkKTWp-12" value="" style="shape=flexArrow;endArrow=classic;html=1;rounded=0;" parent="1" edge="1">
          <mxGeometry width="50" height="50" relative="1" as="geometry">
            <mxPoint x="795" y="669" as="sourcePoint" />
            <mxPoint x="795" y="609" as="targetPoint" />
          </mxGeometry>
        </mxCell>
        <mxCell id="_gIUkZP-d5PhOVjkKTWp-13" value="&lt;div align=&quot;left&quot;&gt;- no development activities&lt;/div&gt;&lt;div align=&quot;left&quot;&gt;- only fully tested and approved&amp;nbsp;&lt;/div&gt;&lt;div align=&quot;left&quot;&gt;ETL pipelines, semantic models,&amp;nbsp;&lt;/div&gt;&lt;div align=&quot;left&quot;&gt;and Power BI reports&amp;nbsp;&lt;/div&gt;&lt;div align=&quot;left&quot;&gt;from the Test environment&amp;nbsp;&lt;/div&gt;&lt;div align=&quot;left&quot;&gt;are deployed&lt;/div&gt;&lt;div align=&quot;left&quot;&gt;- production data&lt;/div&gt;&lt;div align=&quot;left&quot;&gt;daily load from source systems&lt;/div&gt;" style="text;html=1;align=center;verticalAlign=middle;resizable=0;points=[];autosize=1;strokeColor=none;fillColor=none;" parent="1" vertex="1">
          <mxGeometry x="702" y="401" width="200" height="130" as="geometry" />
        </mxCell>
        <mxCell id="_gIUkZP-d5PhOVjkKTWp-14" value="&lt;b&gt;&lt;font style=&quot;font-size: 18px;&quot;&gt;Business users&lt;br&gt;&lt;/font&gt;&lt;/b&gt;" style="text;html=1;align=left;verticalAlign=middle;resizable=0;points=[];autosize=1;strokeColor=none;fillColor=none;" parent="1" vertex="1">
          <mxGeometry x="725" y="679" width="160" height="40" as="geometry" />
        </mxCell>
        <mxCell id="JCZtIJ0anKZUs921YgDY-2" value="Deployment pipeline" style="shape=image;verticalLabelPosition=bottom;labelBackgroundColor=default;verticalAlign=top;aspect=fixed;imageAspect=0;image=data:image/png,iVBORw0KGgoAAAANSUhEUgAAADQAAAA2CAYAAACIsLrgAAAGPklEQVRoQ+1aW0gVXRReVlpmWZiaiommhJqKaIIQFKFPXkATrMyIsEQkhRBfBCE0pIdIDCoIjCRTEBHNUlOKUFN88JKglmLRQ1pmZaSlWfb/34I5jDrntGePlzi0XvScsy/r2+v2rT1j8/t/ISsSm3+A/nJr/rOQOQP9+vWL5ubmaH5+nn7+/En4vLCwQEqI2tjY0IYNG2jjxo20adMmsrW1pc2bN/PnlRRDFoLC3759o9nZWQYiIwC2ZcsW2rp1KwM2KlKAcPrT09MMZiUFoLZt22bIaroBff36lcGspgDU9u3bpbYQBgSX+vLli7Rr6dUOrrhjxw6ONT0iBAiuBTDrIQAFVxSVPwKCe8HN1lPgfnBDEbEI6G8Ao4AQBWUW0Hq6mTlLiLifJiAkgMnJSRELr/kYZ2dni4lCExDAyBbK1UaIrAdQ5mQZoLWoM0ZBW6pTiwCBAUxMTBjdz+z8V69e0cjICL1+/Zo+fvzITAO8bt++fXTo0CHas2eP8N6urq6ajGIRINSalaYz0PDly5fU2NhIHz58sKhwdHQ0HTlyRAgUahOSxFIxAQLRfP/+vdBiegY9e/aMGhoaeAp8/8CBA+Th4UEuLi7k6OjIxHZ4eJjq6+v5MM+cOUN+fn5CW+zevXsZoTUBWomag/ZhbGyMW4adO3dSb28vPXnyhJU7fPgwRUVFmSWeXV1ddP/+fQoODqbjx48LAdKqTSZARjIbYu/p06fU2trKvdBSSUhIoIiICItKYv/i4mJycnKinJwcIUBaGY8BGUkGsEZlZSUNDAywEg4ODtzYff/+nT8fPXqUwsPD+X/EEMbD3dDwqQVl4uLFi1xj8FdUliYHBmSEFTx48IA6OztZkcTERPrx4wfV1tayPklJSRQWFsbE9t69e/T27Vv+HjF04sQJtoYicNeCggJ2SfwVlaXsgQHJZje416VLl7gIR0ZGcpA3Nzfz6ScnJ1NISAhb5ObNmwwGp4nfkHwQ0OfPnzcFNb67du2aLpcD6KXZjgGhJuBkZWRwcJAqKioW3R2kpKRQYGAgL4e1r169ymBzc3MZ0JUrV2hqaoqys7MZGKS9vZ1Te1BQEFtPVOzs7GjXrl2m4QwIxRRxJCvd3d1UU1PDykKZ/fv3m5ZSAKG6Z2Vl8ZgbN24sAoS9ARogjx07xpYVFbgoLK8IA3r37p3phEUXUo/DgZSUlJCbmxsrrRa1y+GWBxchSBhql3v48CF1dHRwbGVmZi5LGJZ0wgFh30WAxsfHZXCY5iCWCgsLOWWfPHnS5G7KAMRoeXk51yiIOikg3be0tDAFysjIIHd3d926qOewhYwCggZtbW3U1NTEFkAMBQQELLMUao06batZhF5XUy++DJBRlwPLQKoeGhrifcyBUiuhMAN8J1J4zZlN0+WMJoXLly/zvQNqka+vL7148YJBwf38/f2X6aIkEeWH/Px8vmyUEc2kYCRtQ4m7d+8yCGSyc+fO0fPnz5nDYbPU1FRuDxRRg8EBoIadPXuWfHx8ZPCQZtqWKayIuzt37nAPg1RdVlZGo6OjDCo9PZ0eP37MwNSg+vr6qLq6muMIRBV0Ce6elpZGe/fulQKkWVj1Up9Pnz7R9evXmfofPHiQYmJiuI7BUmjgAApKz8zMmGLKy8uL3rx5w9/HxsYyGwcdQnbLy8vji3sZ0aQ+esnp58+fGZC3tzcH9O3btxkQqAxAwVIQZDowBrQF6jsKtBKoOwplio+Pl8HCczTJKX6QaR9g2dLSUnYb0I8LFy4w0wYVAjdDPOEEQTwxBo0c6o4ioaGhTGBlnzqYbR+wgd4GD+5269YtVhydKJR/9OgR05dTp05xsGoJkkJdXR33R3FxcbpYwdL1LDZ4elvwqqoqDnokhdOnT3Ob3dPTw/0QLGVvby/tRqITLbbgWERPtuvv7yfc4iAhwBpFRUXsWrCUp6enqE7S4/54SYKV9SYHtTZwNXA5S5eA0tprTBS6xsI8q7poVA5CJuOt5OlbWkv3VTAWs7rLeoDSyx7WwkLSj1MU5fTWptUEZfiB198EShQMdP7jM9b1dj8RN1N7hhAgJVFYzWN99QmsRZ1akxcv1KCs6tUYNTCreXlJKz1bxetlq1l3ZNcWznKyG6z1vP8A2r8rm8mTxV8AAAAASUVORK5CYII=;" parent="1" vertex="1">
          <mxGeometry x="250" y="121" width="52" height="54" as="geometry" />
        </mxCell>
        <mxCell id="JCZtIJ0anKZUs921YgDY-4" value="" style="shape=image;verticalLabelPosition=bottom;labelBackgroundColor=default;verticalAlign=top;aspect=fixed;imageAspect=0;image=data:image/png,iVBORw0KGgoAAAANSUhEUgAAAEkAAABKCAYAAAD353lyAAAIqUlEQVR4Xu1cSWxVVRj+X1taXiuDAqKogMgkoK4UlTjFmSCujdGoMWqMOzfqwmmhJm6MCxPjtNGNKxVjjESDxojTQgMOgGgBRQGLDHZ45bX1+87rk3vPO/e9859723sX/ZMG8nqG/3zn/PP/WhoDyRQ1RaA0BVLrFzIFUmuMZAqkKZA8EPAYMvWSCg9S9W+RE4dExkZFOk4V6VzgwfLkD8nvJY1VRQa2xU/cPktk+pLJR6HFjjmCVAFIPzay1z4bQJ1bKKDyA4kwDO0WGTnWCAhFr2txYYDKFySBs2+AOl5ooHIGidgUH6h8QBodFBkdqP2M8P/4EVg4F3XMgegtzFX0JgckWrKRIyJViJURrRHdoanIqdBzookFieCcOFDzhShWodR5psi0M0Jnp543QSBBdIb/BDgHUzNoFuheLVLqzGatgFWyB2m0HxarFw9n2I+dUkdtHF+di6iPqJdypGxBMq/nrxbHaYPo4ND0hdrK0NdDIoO7MMehuH0Bqh7Gy/2jBjT9K66dIWUHUuU3KGYo5yQqTUdsNh8HOO3kCAPQjgSAzsHYua2Pyhc78EN83DTsk2EcmA1IQ7/CYB11H6jUBYaheBtuFy9n4Ce3WHZ5AsQdaTWHcEE2ZRgHpgdp6Be3x0ymm1klugKca1Pn2RDHea1fUH3E2InxGNAhrnyJBDwlpQOpsgciBn1gUxtEqwu+Df9NIpeYaAGqr01jMUjAHUCFrhnhOxwk+j7DvzsA6hYpL8PnUNCtqNoHRY+cEhUudUgahTuGrAINAF+WTeXlYKenFTeJvw8DafTfcYtkrdt+CtIcS/FhKZihVBMJ9uBOAAXAolSaBl9rld/FORgIA2kQCpeWKUoUrfLK/ACq85IEVIr0ix4kp5hBtLrPz9Urjl0YA+bBnxvfBF95+wz1Y1WChMC0f3ujgmTKlSa3SDS8vxY3xsQO7ogROx3pQKI3Ta86SkYPUVEXjRBQ08m0FXnXorhD68G2DiSzqRWTlSFmzUy9BxMTNqT6j0il19KdsHK0dgryB4kJMhNCRKiASfuGs7uMDEWOkYAn+YNEn8jkhSI0/TzoopmeWyUMOwAFu/cbkYO4gKPQI6RZ8Jnmw1IuvETkdN2tN+xCX6yyN/4xc1OMBjzJHyRb1IzvscZzG8ewIwD985dE+hxxV3T4XFikKx8SmYGgNZT6v8fMiDdu3BWoCU/yA8lVSEwTafchIP7oGRgBhBM+VIblvOlxkZmBFV5XhkKRyPMDiSkQbhQTtUCzfxxm+f3HABB0nIa6kSO65VlY0gBXg/El48woMbbs8Mub+4Hk0kc9F2DL8ayi5rCbHhU53KuZcXLsWReJXPeIfi7DFLtarMib+4Fkp0OYb+Zz1dKer0S2vBCf1QErMwe3SgUeJSpu6quqFYetf0pkXoAy7/8Oq0eKEYowxQ8kmn66AHViRK30NczUT18U6d0aB6P+OnZ+LLL11drvLrtXZPm1Ipuht/ZbTRWr1otcfIf2emphiqnvjZPiDH4g2ZYtNOv39oNgFg6eTevuF1l6tci2d+GYtous3iCya4vIFy83juWr2wDwtGT3HdBP8gxR/ECyTSjz1HTvtfTmnchiOvI9XOfSe0RWXF9bccdmkS9fd6/eiXzVba9pd64p7liCEJfRc6HXOp4g2fIcWHp+665GHVNn0xekDvg4t7/hdbjYIDqUdCz/p6xBYrNVtC4WGo688/BJrzp6gnUPQNyuEtn+Xu3TNRuTxW02cuC3Pq8HyS5WKIyP30ui+Yxm+5iTMRlIJW19RWTnJ/FJLsV9+X0iy65xK+6VN4isvVu5MYYPIbU7goxqndqYZl7htY4fSPYGoSHJfoQHm5+LM0bxWYQYbfdn8c+XXCGy71vEixGLxBE3P4l4zu9wsQUHkAeLpk0YczL29CA/kJzOJJUe5FpLHzwhcgh56BAKdiYd/ZmKsMoPJFckHZqN7Ed1ZBPCkoqju60ZcGWEJRsDwxK2HNIFiJKCfz+QTDkayf8osYDImlYIMSz58OlGUUpaiwHujQhwmUIJoZRhlR9IZMy2cArr4DyXb6pkAcSairwnRWdJA+/+jiR59wfJVa0NrD7EQDuAF7rnayTdoKeOIX9eQuXFJN2Q71m8FnFdyr5ul6gpglsdSK7NQv2lEJEJneNq5mCykBbak/xfkhE5VyEA0Tr7jIpIrvqbwvTXj6QDiXUs1rOiFBrsTgao7A1gST5KASpCBxLzMc5aln+WbzKwMXu4spFtqBGaZg4dKUFK2JxOpSlz+8u5jk3laCNmLH9ZHb8MQxiOKEkPEjdwPWOTn2G4EOCFK5luOtw0TCDBZlduU6iFMJBMAxa/YWTdlAkaGfjmBBSBMT1KdusNcvHseAl86WEgGZl3FP34ORtICVQgQ+aVsP+SPeCsjzHG8unh5sUZgOzWaPRKmSYuvZjVX2w4SFyBbcGuhnYCZG4uoJpiW1CfjIPpv+zlzTVKYgYty+lAIkvsfGUHrE3KUrKZTsAJvE3NavfNesc1XbxNFF16kLh4Q2oUn2lBSgIo6SWxYEqAxqyOu/phM3hB2YhbFP2omFDMNIoyqUmV68ecPzSRERwCarcjRnnJ+FtN2bykOoO81VHohTa4A76KOxEgKFzmfEqwlEy7MnaMpl9d4kEFzzkZh0nZgtRErp2/4lfeK/sSZtGNUHwvzgTbLHN5tEYr+cwPJNOgHpjGjR4y8WsZSiQmXHGH8ONq/NSsQx+KeaFJ+EZlfi+pqagloEWdw0YHtsykcA41d8Gx+YFkXIdeWCtHb4A5BXQLFXA7PGX+ywaHnBpY8wWJWCQ5oyY5xtRtTl/BiDy3/EEyQCV8X85UillAzBeoYoDUFKj8/8hLcUBqBpSiCVSrlH3GFwskA5Tjj7z0oFdyApxEH4Dyt25JXEatXoaBqi8o9rjivaQ6h8wumnxUTlnOwlm30CuepHn/ATVI01AD27/XAAAAAElFTkSuQmCC;" parent="1" vertex="1">
          <mxGeometry x="254.3" y="205" width="43.41" height="44" as="geometry" />
        </mxCell>
        <mxCell id="JCZtIJ0anKZUs921YgDY-5" value="Deployment pipeline" style="shape=image;verticalLabelPosition=bottom;labelBackgroundColor=default;verticalAlign=top;aspect=fixed;imageAspect=0;image=data:image/png,iVBORw0KGgoAAAANSUhEUgAAADQAAAA2CAYAAACIsLrgAAAGPklEQVRoQ+1aW0gVXRReVlpmWZiaiommhJqKaIIQFKFPXkATrMyIsEQkhRBfBCE0pIdIDCoIjCRTEBHNUlOKUFN88JKglmLRQ1pmZaSlWfb/34I5jDrntGePlzi0XvScsy/r2+v2rT1j8/t/ISsSm3+A/nJr/rOQOQP9+vWL5ubmaH5+nn7+/En4vLCwQEqI2tjY0IYNG2jjxo20adMmsrW1pc2bN/PnlRRDFoLC3759o9nZWQYiIwC2ZcsW2rp1KwM2KlKAcPrT09MMZiUFoLZt22bIaroBff36lcGspgDU9u3bpbYQBgSX+vLli7Rr6dUOrrhjxw6ONT0iBAiuBTDrIQAFVxSVPwKCe8HN1lPgfnBDEbEI6G8Ao4AQBWUW0Hq6mTlLiLifJiAkgMnJSRELr/kYZ2dni4lCExDAyBbK1UaIrAdQ5mQZoLWoM0ZBW6pTiwCBAUxMTBjdz+z8V69e0cjICL1+/Zo+fvzITAO8bt++fXTo0CHas2eP8N6urq6ajGIRINSalaYz0PDly5fU2NhIHz58sKhwdHQ0HTlyRAgUahOSxFIxAQLRfP/+vdBiegY9e/aMGhoaeAp8/8CBA+Th4UEuLi7k6OjIxHZ4eJjq6+v5MM+cOUN+fn5CW+zevXsZoTUBWomag/ZhbGyMW4adO3dSb28vPXnyhJU7fPgwRUVFmSWeXV1ddP/+fQoODqbjx48LAdKqTSZARjIbYu/p06fU2trKvdBSSUhIoIiICItKYv/i4mJycnKinJwcIUBaGY8BGUkGsEZlZSUNDAywEg4ODtzYff/+nT8fPXqUwsPD+X/EEMbD3dDwqQVl4uLFi1xj8FdUliYHBmSEFTx48IA6OztZkcTERPrx4wfV1tayPklJSRQWFsbE9t69e/T27Vv+HjF04sQJtoYicNeCggJ2SfwVlaXsgQHJZje416VLl7gIR0ZGcpA3Nzfz6ScnJ1NISAhb5ObNmwwGp4nfkHwQ0OfPnzcFNb67du2aLpcD6KXZjgGhJuBkZWRwcJAqKioW3R2kpKRQYGAgL4e1r169ymBzc3MZ0JUrV2hqaoqys7MZGKS9vZ1Te1BQEFtPVOzs7GjXrl2m4QwIxRRxJCvd3d1UU1PDykKZ/fv3m5ZSAKG6Z2Vl8ZgbN24sAoS9ARogjx07xpYVFbgoLK8IA3r37p3phEUXUo/DgZSUlJCbmxsrrRa1y+GWBxchSBhql3v48CF1dHRwbGVmZi5LGJZ0wgFh30WAxsfHZXCY5iCWCgsLOWWfPHnS5G7KAMRoeXk51yiIOikg3be0tDAFysjIIHd3d926qOewhYwCggZtbW3U1NTEFkAMBQQELLMUao06batZhF5XUy++DJBRlwPLQKoeGhrifcyBUiuhMAN8J1J4zZlN0+WMJoXLly/zvQNqka+vL7148YJBwf38/f2X6aIkEeWH/Px8vmyUEc2kYCRtQ4m7d+8yCGSyc+fO0fPnz5nDYbPU1FRuDxRRg8EBoIadPXuWfHx8ZPCQZtqWKayIuzt37nAPg1RdVlZGo6OjDCo9PZ0eP37MwNSg+vr6qLq6muMIRBV0Ce6elpZGe/fulQKkWVj1Up9Pnz7R9evXmfofPHiQYmJiuI7BUmjgAApKz8zMmGLKy8uL3rx5w9/HxsYyGwcdQnbLy8vji3sZ0aQ+esnp58+fGZC3tzcH9O3btxkQqAxAwVIQZDowBrQF6jsKtBKoOwplio+Pl8HCczTJKX6QaR9g2dLSUnYb0I8LFy4w0wYVAjdDPOEEQTwxBo0c6o4ioaGhTGBlnzqYbR+wgd4GD+5269YtVhydKJR/9OgR05dTp05xsGoJkkJdXR33R3FxcbpYwdL1LDZ4elvwqqoqDnokhdOnT3Ob3dPTw/0QLGVvby/tRqITLbbgWERPtuvv7yfc4iAhwBpFRUXsWrCUp6enqE7S4/54SYKV9SYHtTZwNXA5S5eA0tprTBS6xsI8q7poVA5CJuOt5OlbWkv3VTAWs7rLeoDSyx7WwkLSj1MU5fTWptUEZfiB198EShQMdP7jM9b1dj8RN1N7hhAgJVFYzWN99QmsRZ1akxcv1KCs6tUYNTCreXlJKz1bxetlq1l3ZNcWznKyG6z1vP8A2r8rm8mTxV8AAAAASUVORK5CYII=;" parent="1" vertex="1">
          <mxGeometry x="600" y="420" width="52" height="54" as="geometry" />
        </mxCell>
        <mxCell id="JCZtIJ0anKZUs921YgDY-6" value="" style="shape=image;verticalLabelPosition=bottom;labelBackgroundColor=default;verticalAlign=top;aspect=fixed;imageAspect=0;image=data:image/png,iVBORw0KGgoAAAANSUhEUgAAAEkAAABKCAYAAAD353lyAAAIqUlEQVR4Xu1cSWxVVRj+X1taXiuDAqKogMgkoK4UlTjFmSCujdGoMWqMOzfqwmmhJm6MCxPjtNGNKxVjjESDxojTQgMOgGgBRQGLDHZ45bX1+87rk3vPO/e9859723sX/ZMG8nqG/3zn/PP/WhoDyRQ1RaA0BVLrFzIFUmuMZAqkKZA8EPAYMvWSCg9S9W+RE4dExkZFOk4V6VzgwfLkD8nvJY1VRQa2xU/cPktk+pLJR6HFjjmCVAFIPzay1z4bQJ1bKKDyA4kwDO0WGTnWCAhFr2txYYDKFySBs2+AOl5ooHIGidgUH6h8QBodFBkdqP2M8P/4EVg4F3XMgegtzFX0JgckWrKRIyJViJURrRHdoanIqdBzookFieCcOFDzhShWodR5psi0M0Jnp543QSBBdIb/BDgHUzNoFuheLVLqzGatgFWyB2m0HxarFw9n2I+dUkdtHF+di6iPqJdypGxBMq/nrxbHaYPo4ND0hdrK0NdDIoO7MMehuH0Bqh7Gy/2jBjT9K66dIWUHUuU3KGYo5yQqTUdsNh8HOO3kCAPQjgSAzsHYua2Pyhc78EN83DTsk2EcmA1IQ7/CYB11H6jUBYaheBtuFy9n4Ce3WHZ5AsQdaTWHcEE2ZRgHpgdp6Be3x0ymm1klugKca1Pn2RDHea1fUH3E2InxGNAhrnyJBDwlpQOpsgciBn1gUxtEqwu+Df9NIpeYaAGqr01jMUjAHUCFrhnhOxwk+j7DvzsA6hYpL8PnUNCtqNoHRY+cEhUudUgahTuGrAINAF+WTeXlYKenFTeJvw8DafTfcYtkrdt+CtIcS/FhKZihVBMJ9uBOAAXAolSaBl9rld/FORgIA2kQCpeWKUoUrfLK/ACq85IEVIr0ix4kp5hBtLrPz9Urjl0YA+bBnxvfBF95+wz1Y1WChMC0f3ujgmTKlSa3SDS8vxY3xsQO7ogROx3pQKI3Ta86SkYPUVEXjRBQ08m0FXnXorhD68G2DiSzqRWTlSFmzUy9BxMTNqT6j0il19KdsHK0dgryB4kJMhNCRKiASfuGs7uMDEWOkYAn+YNEn8jkhSI0/TzoopmeWyUMOwAFu/cbkYO4gKPQI6RZ8Jnmw1IuvETkdN2tN+xCX6yyN/4xc1OMBjzJHyRb1IzvscZzG8ewIwD985dE+hxxV3T4XFikKx8SmYGgNZT6v8fMiDdu3BWoCU/yA8lVSEwTafchIP7oGRgBhBM+VIblvOlxkZmBFV5XhkKRyPMDiSkQbhQTtUCzfxxm+f3HABB0nIa6kSO65VlY0gBXg/El48woMbbs8Mub+4Hk0kc9F2DL8ayi5rCbHhU53KuZcXLsWReJXPeIfi7DFLtarMib+4Fkp0OYb+Zz1dKer0S2vBCf1QErMwe3SgUeJSpu6quqFYetf0pkXoAy7/8Oq0eKEYowxQ8kmn66AHViRK30NczUT18U6d0aB6P+OnZ+LLL11drvLrtXZPm1Ipuht/ZbTRWr1otcfIf2emphiqnvjZPiDH4g2ZYtNOv39oNgFg6eTevuF1l6tci2d+GYtous3iCya4vIFy83juWr2wDwtGT3HdBP8gxR/ECyTSjz1HTvtfTmnchiOvI9XOfSe0RWXF9bccdmkS9fd6/eiXzVba9pd64p7liCEJfRc6HXOp4g2fIcWHp+665GHVNn0xekDvg4t7/hdbjYIDqUdCz/p6xBYrNVtC4WGo688/BJrzp6gnUPQNyuEtn+Xu3TNRuTxW02cuC3Pq8HyS5WKIyP30ui+Yxm+5iTMRlIJW19RWTnJ/FJLsV9+X0iy65xK+6VN4isvVu5MYYPIbU7goxqndqYZl7htY4fSPYGoSHJfoQHm5+LM0bxWYQYbfdn8c+XXCGy71vEixGLxBE3P4l4zu9wsQUHkAeLpk0YczL29CA/kJzOJJUe5FpLHzwhcgh56BAKdiYd/ZmKsMoPJFckHZqN7Ed1ZBPCkoqju60ZcGWEJRsDwxK2HNIFiJKCfz+QTDkayf8osYDImlYIMSz58OlGUUpaiwHujQhwmUIJoZRhlR9IZMy2cArr4DyXb6pkAcSairwnRWdJA+/+jiR59wfJVa0NrD7EQDuAF7rnayTdoKeOIX9eQuXFJN2Q71m8FnFdyr5ul6gpglsdSK7NQv2lEJEJneNq5mCykBbak/xfkhE5VyEA0Tr7jIpIrvqbwvTXj6QDiXUs1rOiFBrsTgao7A1gST5KASpCBxLzMc5aln+WbzKwMXu4spFtqBGaZg4dKUFK2JxOpSlz+8u5jk3laCNmLH9ZHb8MQxiOKEkPEjdwPWOTn2G4EOCFK5luOtw0TCDBZlduU6iFMJBMAxa/YWTdlAkaGfjmBBSBMT1KdusNcvHseAl86WEgGZl3FP34ORtICVQgQ+aVsP+SPeCsjzHG8unh5sUZgOzWaPRKmSYuvZjVX2w4SFyBbcGuhnYCZG4uoJpiW1CfjIPpv+zlzTVKYgYty+lAIkvsfGUHrE3KUrKZTsAJvE3NavfNesc1XbxNFF16kLh4Q2oUn2lBSgIo6SWxYEqAxqyOu/phM3hB2YhbFP2omFDMNIoyqUmV68ecPzSRERwCarcjRnnJ+FtN2bykOoO81VHohTa4A76KOxEgKFzmfEqwlEy7MnaMpl9d4kEFzzkZh0nZgtRErp2/4lfeK/sSZtGNUHwvzgTbLHN5tEYr+cwPJNOgHpjGjR4y8WsZSiQmXHGH8ONq/NSsQx+KeaFJ+EZlfi+pqagloEWdw0YHtsykcA41d8Gx+YFkXIdeWCtHb4A5BXQLFXA7PGX+ywaHnBpY8wWJWCQ5oyY5xtRtTl/BiDy3/EEyQCV8X85UillAzBeoYoDUFKj8/8hLcUBqBpSiCVSrlH3GFwskA5Tjj7z0oFdyApxEH4Dyt25JXEatXoaBqi8o9rjivaQ6h8wumnxUTlnOwlm30CuepHn/ATVI01AD27/XAAAAAElFTkSuQmCC;" parent="1" vertex="1">
          <mxGeometry x="604.3" y="504" width="43.41" height="44" as="geometry" />
        </mxCell>
        <mxCell id="KEYkbQwU7IqM9qzdViw--6" style="edgeStyle=orthogonalEdgeStyle;rounded=0;orthogonalLoop=1;jettySize=auto;html=1;" parent="1" source="KEYkbQwU7IqM9qzdViw--1" target="_gIUkZP-d5PhOVjkKTWp-1" edge="1">
          <mxGeometry relative="1" as="geometry">
            <Array as="points">
              <mxPoint x="102" y="349" />
              <mxPoint x="102" y="349" />
            </Array>
          </mxGeometry>
        </mxCell>
        <mxCell id="KEYkbQwU7IqM9qzdViw--1" value="&lt;div&gt;7core TEST&lt;/div&gt;" style="image;sketch=0;aspect=fixed;html=1;points=[];align=center;fontSize=12;image=img/lib/mscae/Azure_Database_for_PostgreSQL_servers.svg;" parent="1" vertex="1">
          <mxGeometry x="78.8" y="209" width="46.4" height="61.05" as="geometry" />
        </mxCell>
        <mxCell id="KEYkbQwU7IqM9qzdViw--7" style="edgeStyle=orthogonalEdgeStyle;rounded=0;orthogonalLoop=1;jettySize=auto;html=1;entryX=0.75;entryY=0;entryDx=0;entryDy=0;" parent="1" source="KEYkbQwU7IqM9qzdViw--2" target="_gIUkZP-d5PhOVjkKTWp-6" edge="1">
          <mxGeometry relative="1" as="geometry" />
        </mxCell>
        <mxCell id="KEYkbQwU7IqM9qzdViw--2" value="7core PROD" style="image;sketch=0;aspect=fixed;html=1;points=[];align=center;fontSize=12;image=img/lib/mscae/Azure_Database_for_PostgreSQL_servers.svg;" parent="1" vertex="1">
          <mxGeometry x="421.8" y="-90" width="46.4" height="61.05" as="geometry" />
        </mxCell>
        <mxCell id="KEYkbQwU7IqM9qzdViw--4" value="" style="edgeStyle=orthogonalEdgeStyle;rounded=0;orthogonalLoop=1;jettySize=auto;html=1;" parent="1" source="KEYkbQwU7IqM9qzdViw--3" target="_gIUkZP-d5PhOVjkKTWp-11" edge="1">
          <mxGeometry relative="1" as="geometry">
            <Array as="points">
              <mxPoint x="805" y="349" />
              <mxPoint x="805" y="349" />
            </Array>
          </mxGeometry>
        </mxCell>
        <mxCell id="KEYkbQwU7IqM9qzdViw--3" value="7core PROD" style="image;sketch=0;aspect=fixed;html=1;points=[];align=center;fontSize=12;image=img/lib/mscae/Azure_Database_for_PostgreSQL_servers.svg;" parent="1" vertex="1">
          <mxGeometry x="781.8000000000001" y="209" width="46.4" height="61.05" as="geometry" />
        </mxCell>
        <mxCell id="9WFhQ2qny5PS2CYiB69o-1" value="" style="rounded=0;whiteSpace=wrap;html=1;" vertex="1" parent="1">
          <mxGeometry x="353" y="680" width="200" height="200" as="geometry" />
        </mxCell>
        <mxCell id="9WFhQ2qny5PS2CYiB69o-2" value="Preproduction" style="text;strokeColor=none;align=left;fillColor=none;html=1;verticalAlign=middle;whiteSpace=wrap;rounded=0;fontSize=17;fontStyle=1" vertex="1" parent="1">
          <mxGeometry x="353" y="680" width="126" height="30" as="geometry" />
        </mxCell>
        <mxCell id="9WFhQ2qny5PS2CYiB69o-3" value="" style="shape=flexArrow;endArrow=classic;html=1;rounded=0;" edge="1" parent="1">
          <mxGeometry width="50" height="50" relative="1" as="geometry">
            <mxPoint x="453" y="970" as="sourcePoint" />
            <mxPoint x="453" y="910" as="targetPoint" />
          </mxGeometry>
        </mxCell>
        <mxCell id="9WFhQ2qny5PS2CYiB69o-4" value="&lt;div align=&quot;left&quot;&gt;- data quality testing&lt;/div&gt;&lt;div align=&quot;left&quot;&gt;- performance testing&lt;br&gt;&lt;/div&gt;&lt;div align=&quot;left&quot;&gt;- semantic model development&lt;br&gt;&lt;/div&gt;&lt;div align=&quot;left&quot;&gt;- PowerBI reports development&lt;/div&gt;&lt;div align=&quot;left&quot;&gt;- production data&lt;br&gt;&lt;/div&gt;&lt;div align=&quot;left&quot;&gt;- on demand load from&lt;br&gt;source systems&lt;/div&gt;" style="text;html=1;align=center;verticalAlign=middle;resizable=0;points=[];autosize=1;strokeColor=none;fillColor=none;" vertex="1" parent="1">
          <mxGeometry x="350" y="707" width="190" height="110" as="geometry" />
        </mxCell>
        <mxCell id="9WFhQ2qny5PS2CYiB69o-5" value="&lt;b&gt;&lt;font style=&quot;font-size: 18px;&quot;&gt;BI developers&lt;br&gt;BU testers&lt;br&gt;&lt;/font&gt;&lt;/b&gt;" style="text;html=1;align=left;verticalAlign=middle;resizable=0;points=[];autosize=1;strokeColor=none;fillColor=none;" vertex="1" parent="1">
          <mxGeometry x="383" y="970" width="140" height="60" as="geometry" />
        </mxCell>
        <mxCell id="9WFhQ2qny5PS2CYiB69o-7" style="edgeStyle=orthogonalEdgeStyle;rounded=0;orthogonalLoop=1;jettySize=auto;html=1;entryX=0.75;entryY=0;entryDx=0;entryDy=0;" edge="1" parent="1" source="9WFhQ2qny5PS2CYiB69o-8" target="9WFhQ2qny5PS2CYiB69o-2">
          <mxGeometry relative="1" as="geometry" />
        </mxCell>
        <mxCell id="9WFhQ2qny5PS2CYiB69o-8" value="7core PROD" style="image;sketch=0;aspect=fixed;html=1;points=[];align=center;fontSize=12;image=img/lib/mscae/Azure_Database_for_PostgreSQL_servers.svg;" vertex="1" parent="1">
          <mxGeometry x="424.80000000000007" y="510" width="46.4" height="61.05" as="geometry" />
        </mxCell>
        <mxCell id="9WFhQ2qny5PS2CYiB69o-9" value="Deployment pipeline" style="shape=image;verticalLabelPosition=bottom;labelBackgroundColor=default;verticalAlign=top;aspect=fixed;imageAspect=0;image=data:image/png,iVBORw0KGgoAAAANSUhEUgAAADQAAAA2CAYAAACIsLrgAAAGPklEQVRoQ+1aW0gVXRReVlpmWZiaiommhJqKaIIQFKFPXkATrMyIsEQkhRBfBCE0pIdIDCoIjCRTEBHNUlOKUFN88JKglmLRQ1pmZaSlWfb/34I5jDrntGePlzi0XvScsy/r2+v2rT1j8/t/ISsSm3+A/nJr/rOQOQP9+vWL5ubmaH5+nn7+/En4vLCwQEqI2tjY0IYNG2jjxo20adMmsrW1pc2bN/PnlRRDFoLC3759o9nZWQYiIwC2ZcsW2rp1KwM2KlKAcPrT09MMZiUFoLZt22bIaroBff36lcGspgDU9u3bpbYQBgSX+vLli7Rr6dUOrrhjxw6ONT0iBAiuBTDrIQAFVxSVPwKCe8HN1lPgfnBDEbEI6G8Ao4AQBWUW0Hq6mTlLiLifJiAkgMnJSRELr/kYZ2dni4lCExDAyBbK1UaIrAdQ5mQZoLWoM0ZBW6pTiwCBAUxMTBjdz+z8V69e0cjICL1+/Zo+fvzITAO8bt++fXTo0CHas2eP8N6urq6ajGIRINSalaYz0PDly5fU2NhIHz58sKhwdHQ0HTlyRAgUahOSxFIxAQLRfP/+vdBiegY9e/aMGhoaeAp8/8CBA+Th4UEuLi7k6OjIxHZ4eJjq6+v5MM+cOUN+fn5CW+zevXsZoTUBWomag/ZhbGyMW4adO3dSb28vPXnyhJU7fPgwRUVFmSWeXV1ddP/+fQoODqbjx48LAdKqTSZARjIbYu/p06fU2trKvdBSSUhIoIiICItKYv/i4mJycnKinJwcIUBaGY8BGUkGsEZlZSUNDAywEg4ODtzYff/+nT8fPXqUwsPD+X/EEMbD3dDwqQVl4uLFi1xj8FdUliYHBmSEFTx48IA6OztZkcTERPrx4wfV1tayPklJSRQWFsbE9t69e/T27Vv+HjF04sQJtoYicNeCggJ2SfwVlaXsgQHJZje416VLl7gIR0ZGcpA3Nzfz6ScnJ1NISAhb5ObNmwwGp4nfkHwQ0OfPnzcFNb67du2aLpcD6KXZjgGhJuBkZWRwcJAqKioW3R2kpKRQYGAgL4e1r169ymBzc3MZ0JUrV2hqaoqys7MZGKS9vZ1Te1BQEFtPVOzs7GjXrl2m4QwIxRRxJCvd3d1UU1PDykKZ/fv3m5ZSAKG6Z2Vl8ZgbN24sAoS9ARogjx07xpYVFbgoLK8IA3r37p3phEUXUo/DgZSUlJCbmxsrrRa1y+GWBxchSBhql3v48CF1dHRwbGVmZi5LGJZ0wgFh30WAxsfHZXCY5iCWCgsLOWWfPHnS5G7KAMRoeXk51yiIOikg3be0tDAFysjIIHd3d926qOewhYwCggZtbW3U1NTEFkAMBQQELLMUao06batZhF5XUy++DJBRlwPLQKoeGhrifcyBUiuhMAN8J1J4zZlN0+WMJoXLly/zvQNqka+vL7148YJBwf38/f2X6aIkEeWH/Px8vmyUEc2kYCRtQ4m7d+8yCGSyc+fO0fPnz5nDYbPU1FRuDxRRg8EBoIadPXuWfHx8ZPCQZtqWKayIuzt37nAPg1RdVlZGo6OjDCo9PZ0eP37MwNSg+vr6qLq6muMIRBV0Ce6elpZGe/fulQKkWVj1Up9Pnz7R9evXmfofPHiQYmJiuI7BUmjgAApKz8zMmGLKy8uL3rx5w9/HxsYyGwcdQnbLy8vji3sZ0aQ+esnp58+fGZC3tzcH9O3btxkQqAxAwVIQZDowBrQF6jsKtBKoOwplio+Pl8HCczTJKX6QaR9g2dLSUnYb0I8LFy4w0wYVAjdDPOEEQTwxBo0c6o4ioaGhTGBlnzqYbR+wgd4GD+5269YtVhydKJR/9OgR05dTp05xsGoJkkJdXR33R3FxcbpYwdL1LDZ4elvwqqoqDnokhdOnT3Ob3dPTw/0QLGVvby/tRqITLbbgWERPtuvv7yfc4iAhwBpFRUXsWrCUp6enqE7S4/54SYKV9SYHtTZwNXA5S5eA0tprTBS6xsI8q7poVA5CJuOt5OlbWkv3VTAWs7rLeoDSyx7WwkLSj1MU5fTWptUEZfiB198EShQMdP7jM9b1dj8RN1N7hhAgJVFYzWN99QmsRZ1akxcv1KCs6tUYNTCreXlJKz1bxetlq1l3ZNcWznKyG6z1vP8A2r8rm8mTxV8AAAAASUVORK5CYII=;" vertex="1" parent="1">
          <mxGeometry x="250" y="716" width="52" height="54" as="geometry" />
        </mxCell>
        <mxCell id="9WFhQ2qny5PS2CYiB69o-10" value="" style="shape=image;verticalLabelPosition=bottom;labelBackgroundColor=default;verticalAlign=top;aspect=fixed;imageAspect=0;image=data:image/png,iVBORw0KGgoAAAANSUhEUgAAAEkAAABKCAYAAAD353lyAAAIqUlEQVR4Xu1cSWxVVRj+X1taXiuDAqKogMgkoK4UlTjFmSCujdGoMWqMOzfqwmmhJm6MCxPjtNGNKxVjjESDxojTQgMOgGgBRQGLDHZ45bX1+87rk3vPO/e9859723sX/ZMG8nqG/3zn/PP/WhoDyRQ1RaA0BVLrFzIFUmuMZAqkKZA8EPAYMvWSCg9S9W+RE4dExkZFOk4V6VzgwfLkD8nvJY1VRQa2xU/cPktk+pLJR6HFjjmCVAFIPzay1z4bQJ1bKKDyA4kwDO0WGTnWCAhFr2txYYDKFySBs2+AOl5ooHIGidgUH6h8QBodFBkdqP2M8P/4EVg4F3XMgegtzFX0JgckWrKRIyJViJURrRHdoanIqdBzookFieCcOFDzhShWodR5psi0M0Jnp543QSBBdIb/BDgHUzNoFuheLVLqzGatgFWyB2m0HxarFw9n2I+dUkdtHF+di6iPqJdypGxBMq/nrxbHaYPo4ND0hdrK0NdDIoO7MMehuH0Bqh7Gy/2jBjT9K66dIWUHUuU3KGYo5yQqTUdsNh8HOO3kCAPQjgSAzsHYua2Pyhc78EN83DTsk2EcmA1IQ7/CYB11H6jUBYaheBtuFy9n4Ce3WHZ5AsQdaTWHcEE2ZRgHpgdp6Be3x0ymm1klugKca1Pn2RDHea1fUH3E2InxGNAhrnyJBDwlpQOpsgciBn1gUxtEqwu+Df9NIpeYaAGqr01jMUjAHUCFrhnhOxwk+j7DvzsA6hYpL8PnUNCtqNoHRY+cEhUudUgahTuGrAINAF+WTeXlYKenFTeJvw8DafTfcYtkrdt+CtIcS/FhKZihVBMJ9uBOAAXAolSaBl9rld/FORgIA2kQCpeWKUoUrfLK/ACq85IEVIr0ix4kp5hBtLrPz9Urjl0YA+bBnxvfBF95+wz1Y1WChMC0f3ujgmTKlSa3SDS8vxY3xsQO7ogROx3pQKI3Ta86SkYPUVEXjRBQ08m0FXnXorhD68G2DiSzqRWTlSFmzUy9BxMTNqT6j0il19KdsHK0dgryB4kJMhNCRKiASfuGs7uMDEWOkYAn+YNEn8jkhSI0/TzoopmeWyUMOwAFu/cbkYO4gKPQI6RZ8Jnmw1IuvETkdN2tN+xCX6yyN/4xc1OMBjzJHyRb1IzvscZzG8ewIwD985dE+hxxV3T4XFikKx8SmYGgNZT6v8fMiDdu3BWoCU/yA8lVSEwTafchIP7oGRgBhBM+VIblvOlxkZmBFV5XhkKRyPMDiSkQbhQTtUCzfxxm+f3HABB0nIa6kSO65VlY0gBXg/El48woMbbs8Mub+4Hk0kc9F2DL8ayi5rCbHhU53KuZcXLsWReJXPeIfi7DFLtarMib+4Fkp0OYb+Zz1dKer0S2vBCf1QErMwe3SgUeJSpu6quqFYetf0pkXoAy7/8Oq0eKEYowxQ8kmn66AHViRK30NczUT18U6d0aB6P+OnZ+LLL11drvLrtXZPm1Ipuht/ZbTRWr1otcfIf2emphiqnvjZPiDH4g2ZYtNOv39oNgFg6eTevuF1l6tci2d+GYtous3iCya4vIFy83juWr2wDwtGT3HdBP8gxR/ECyTSjz1HTvtfTmnchiOvI9XOfSe0RWXF9bccdmkS9fd6/eiXzVba9pd64p7liCEJfRc6HXOp4g2fIcWHp+665GHVNn0xekDvg4t7/hdbjYIDqUdCz/p6xBYrNVtC4WGo688/BJrzp6gnUPQNyuEtn+Xu3TNRuTxW02cuC3Pq8HyS5WKIyP30ui+Yxm+5iTMRlIJW19RWTnJ/FJLsV9+X0iy65xK+6VN4isvVu5MYYPIbU7goxqndqYZl7htY4fSPYGoSHJfoQHm5+LM0bxWYQYbfdn8c+XXCGy71vEixGLxBE3P4l4zu9wsQUHkAeLpk0YczL29CA/kJzOJJUe5FpLHzwhcgh56BAKdiYd/ZmKsMoPJFckHZqN7Ed1ZBPCkoqju60ZcGWEJRsDwxK2HNIFiJKCfz+QTDkayf8osYDImlYIMSz58OlGUUpaiwHujQhwmUIJoZRhlR9IZMy2cArr4DyXb6pkAcSairwnRWdJA+/+jiR59wfJVa0NrD7EQDuAF7rnayTdoKeOIX9eQuXFJN2Q71m8FnFdyr5ul6gpglsdSK7NQv2lEJEJneNq5mCykBbak/xfkhE5VyEA0Tr7jIpIrvqbwvTXj6QDiXUs1rOiFBrsTgao7A1gST5KASpCBxLzMc5aln+WbzKwMXu4spFtqBGaZg4dKUFK2JxOpSlz+8u5jk3laCNmLH9ZHb8MQxiOKEkPEjdwPWOTn2G4EOCFK5luOtw0TCDBZlduU6iFMJBMAxa/YWTdlAkaGfjmBBSBMT1KdusNcvHseAl86WEgGZl3FP34ORtICVQgQ+aVsP+SPeCsjzHG8unh5sUZgOzWaPRKmSYuvZjVX2w4SFyBbcGuhnYCZG4uoJpiW1CfjIPpv+zlzTVKYgYty+lAIkvsfGUHrE3KUrKZTsAJvE3NavfNesc1XbxNFF16kLh4Q2oUn2lBSgIo6SWxYEqAxqyOu/phM3hB2YhbFP2omFDMNIoyqUmV68ecPzSRERwCarcjRnnJ+FtN2bykOoO81VHohTa4A76KOxEgKFzmfEqwlEy7MnaMpl9d4kEFzzkZh0nZgtRErp2/4lfeK/sSZtGNUHwvzgTbLHN5tEYr+cwPJNOgHpjGjR4y8WsZSiQmXHGH8ONq/NSsQx+KeaFJ+EZlfi+pqagloEWdw0YHtsykcA41d8Gx+YFkXIdeWCtHb4A5BXQLFXA7PGX+ywaHnBpY8wWJWCQ5oyY5xtRtTl/BiDy3/EEyQCV8X85UillAzBeoYoDUFKj8/8hLcUBqBpSiCVSrlH3GFwskA5Tjj7z0oFdyApxEH4Dyt25JXEatXoaBqi8o9rjivaQ6h8wumnxUTlnOwlm30CuepHn/ATVI01AD27/XAAAAAElFTkSuQmCC;" vertex="1" parent="1">
          <mxGeometry x="254.3" y="800" width="43.41" height="44" as="geometry" />
        </mxCell>
      </root>
    </mxGraphModel>
  </diagram>
</mxfile>
